<?xml version="1.0" encoding="UTF-8"?>
<svg id="Capa_1" data-name="Capa 1" xmlns="http://www.w3.org/2000/svg" viewBox="0 0 9553.31 5803.13">
  <defs>
    <style>
      .cls-1 {
        fill: #ba843d;
      }

      .cls-2 {
        fill: #fff;
      }
    </style>
  </defs>
  <rect x="7813.3" y="4422.53" width="1740.01" height="1380.6"/>
  <rect x="7813.3" y="1178.11" width="1740.01" height="1380.6"/>
  <rect x="5081.8" y="1171.48" width="2324.07" height="1380.6"/>
  <rect x="2526.78" y="1171.48" width="2324.07" height="1380.6"/>
  <path class="cls-1" d="M8952.59,5414.52c26.8-11.49,50.27-27.29,70.37-47.4,20.11-20.11,36.06-43.72,47.88-70.85,11.8-27.13,17.73-56.02,17.73-86.66,0-28.08-4.96-54.58-14.84-79.48-9.92-24.89-23.47-47.23-40.71-67.03-17.23-19.78-37.67-36.06-61.28-48.84-23.63-12.76-48.83-21.06-75.65-24.9,5.75-10.2,10.37-21.21,13.89-33.03,3.5-11.8,5.27-24.09,5.27-36.87,0-18.51-3.52-36.06-10.53-52.66-7.03-16.59-16.45-31.12-28.25-43.57-11.81-12.45-25.86-22.5-42.14-30.16-16.27-7.66-33.68-11.81-52.18-12.45h-218.93c-18.51.64-35.92,4.79-52.19,12.45-16.27,7.66-30.32,17.71-42.14,30.16-11.8,12.45-21.21,26.98-28.24,43.57-7.01,16.61-10.54,34.15-10.54,52.66,0,12.78,1.78,25.06,5.28,36.87,3.5,11.82,8.13,22.83,13.88,33.03-26.81,3.83-52.02,12.14-75.64,24.9-23.62,12.78-44.06,29.06-61.29,48.84-17.24,19.79-30.79,42.14-40.7,67.03-9.89,24.9-14.84,51.4-14.84,79.48,0,30.64,5.91,59.53,17.72,86.66,11.81,27.14,27.76,50.75,47.88,70.85,20.11,20.11,43.57,35.91,70.38,47.4,26.81,11.49,55.53,17.24,86.18,17.24h387.46c30.65,0,59.37-5.75,86.19-17.24ZM8931.05,5055.92c20.1,8.62,37.82,20.59,53.13,35.91,15.33,15.32,27.29,33.03,35.92,53.14,8.61,20.11,12.91,41.66,12.91,64.64s-4.3,44.53-12.91,64.64c-8.63,20.11-20.59,37.82-35.92,53.14-15.32,15.32-33.03,27.29-53.13,35.91-20.12,8.62-41.66,12.93-64.65,12.93h-165.31v-187.61c1.84-15.22,5.69-29.78,11.63-43.64,8.61-20.11,20.59-37.82,35.9-53.14,15.33-15.32,33.04-27.29,53.16-35.91,20.1-8.62,41.64-12.92,64.63-12.92s44.53,4.3,64.65,12.92ZM8835.28,4860.58c16.27,16.28,24.42,35.91,24.42,58.89,0,16.61-4.64,31.76-13.89,45.49-9.25,13.73-21.54,23.79-36.86,30.16-42.17,11.33-78.11,33.58-107.86,66.62v-225.57h75.31c22.98,0,42.62,8.14,58.89,24.41ZM8510.05,4860.58c16.28-16.28,35.92-24.41,58.9-24.41h75.31v225.57c-29.76-33.04-65.7-55.29-107.87-66.62-15.32-6.37-27.6-16.43-36.86-30.16-9.24-13.72-13.88-28.87-13.88-45.49,0-22.98,8.13-42.61,24.4-58.89ZM8414.3,5363.3c-20.1-8.62-37.83-20.59-53.13-35.91-15.33-15.32-27.3-33.04-35.92-53.14-8.62-20.11-12.92-41.65-12.92-64.64s4.3-44.53,12.92-64.64c8.62-20.11,20.59-37.82,35.92-53.14,15.31-15.32,33.03-27.29,53.13-35.91,20.11-8.62,41.66-12.92,64.64-12.92s44.53,4.3,64.64,12.92c20.1,8.62,37.83,20.59,53.14,35.91,15.32,15.32,27.29,33.03,35.91,53.14,5.94,13.86,9.79,28.43,11.63,43.66v187.6h-165.32c-22.97,0-44.53-4.31-64.64-12.93Z"/>
  <path class="cls-1" d="M8952.59,3908.41c26.8-11.49,50.27-27.29,70.37-47.4,20.11-20.11,36.06-43.72,47.88-70.85,11.8-27.13,17.73-56.02,17.73-86.66,0-28.08-4.96-54.58-14.84-79.48-9.92-24.89-23.47-47.23-40.71-67.03-17.23-19.78-37.67-36.06-61.28-48.84-23.63-12.76-48.83-21.06-75.65-24.9,5.75-10.2,10.37-21.21,13.89-33.03,3.5-11.8,5.27-24.09,5.27-36.87,0-18.51-3.52-36.06-10.53-52.66-7.03-16.59-16.45-31.12-28.25-43.57-11.81-12.45-25.86-22.5-42.14-30.16-16.27-7.66-33.68-11.81-52.18-12.45h-218.93c-18.51.64-35.92,4.79-52.19,12.45-16.27,7.66-30.32,17.71-42.14,30.16-11.8,12.45-21.21,26.98-28.24,43.57-7.01,16.61-10.54,34.15-10.54,52.66,0,12.78,1.78,25.06,5.28,36.87,3.5,11.82,8.13,22.83,13.88,33.03-26.81,3.83-52.02,12.14-75.64,24.9-23.62,12.78-44.06,29.06-61.29,48.84-17.24,19.79-30.79,42.14-40.7,67.03-9.89,24.9-14.84,51.4-14.84,79.48,0,30.64,5.91,59.53,17.72,86.66,11.81,27.14,27.76,50.75,47.88,70.85,20.11,20.11,43.57,35.91,70.38,47.4,26.81,11.49,55.53,17.24,86.18,17.24h387.46c30.65,0,59.37-5.75,86.19-17.24ZM8931.05,3549.81c20.1,8.62,37.82,20.59,53.13,35.91,15.33,15.32,27.29,33.03,35.92,53.14,8.61,20.11,12.91,41.66,12.91,64.64s-4.3,44.53-12.91,64.64c-8.63,20.11-20.59,37.82-35.92,53.14-15.32,15.32-33.03,27.29-53.13,35.91-20.12,8.62-41.66,12.93-64.65,12.93h-165.31v-187.61c1.84-15.22,5.69-29.78,11.63-43.64,8.61-20.11,20.59-37.82,35.9-53.14,15.33-15.32,33.04-27.29,53.16-35.91,20.1-8.62,41.64-12.92,64.63-12.92s44.53,4.3,64.65,12.92ZM8835.28,3354.47c16.27,16.28,24.42,35.91,24.42,58.89,0,16.61-4.64,31.76-13.89,45.49-9.25,13.73-21.54,23.79-36.86,30.16-42.17,11.33-78.11,33.58-107.86,66.62v-225.57h75.31c22.98,0,42.62,8.14,58.89,24.41ZM8510.05,3354.47c16.28-16.28,35.92-24.41,58.9-24.41h75.31v225.57c-29.76-33.04-65.7-55.29-107.87-66.62-15.32-6.37-27.6-16.43-36.86-30.16-9.24-13.72-13.88-28.87-13.88-45.49,0-22.98,8.13-42.61,24.4-58.89ZM8414.3,3857.18c-20.1-8.62-37.83-20.59-53.13-35.91-15.33-15.32-27.3-33.04-35.92-53.14-8.62-20.11-12.92-41.65-12.92-64.64s4.3-44.53,12.92-64.64c8.62-20.11,20.59-37.82,35.92-53.14,15.31-15.32,33.03-27.29,53.13-35.91,20.11-8.62,41.66-12.92,64.64-12.92s44.53,4.3,64.64,12.92c20.1,8.62,37.83,20.59,53.14,35.91,15.32,15.32,27.29,33.03,35.91,53.14,5.94,13.86,9.79,28.43,11.63,43.66v187.6h-165.32c-22.97,0-44.53-4.31-64.64-12.93Z"/>
  <path class="cls-2" d="M8952.59,2170.11c26.8-11.49,50.27-27.29,70.37-47.4,20.11-20.11,36.06-43.72,47.88-70.85,11.8-27.13,17.73-56.02,17.73-86.66,0-28.08-4.96-54.58-14.84-79.48-9.92-24.89-23.47-47.23-40.71-67.03-17.23-19.78-37.67-36.06-61.28-48.84-23.63-12.76-48.83-21.06-75.65-24.9,5.75-10.2,10.37-21.21,13.89-33.03,3.5-11.8,5.27-24.09,5.27-36.87,0-18.51-3.52-36.06-10.53-52.66-7.03-16.59-16.45-31.12-28.25-43.57-11.81-12.45-25.86-22.5-42.14-30.16-16.27-7.66-33.68-11.81-52.18-12.45h-218.93c-18.51.64-35.92,4.79-52.19,12.45-16.27,7.66-30.32,17.71-42.14,30.16-11.8,12.45-21.21,26.98-28.24,43.57-7.01,16.61-10.54,34.15-10.54,52.66,0,12.78,1.78,25.06,5.28,36.87,3.5,11.82,8.13,22.83,13.88,33.03-26.81,3.83-52.02,12.14-75.64,24.9-23.62,12.78-44.06,29.06-61.29,48.84-17.24,19.79-30.79,42.14-40.7,67.03-9.89,24.9-14.84,51.4-14.84,79.48,0,30.64,5.91,59.53,17.72,86.66,11.81,27.14,27.76,50.75,47.88,70.85,20.11,20.11,43.57,35.91,70.38,47.4,26.81,11.49,55.53,17.24,86.18,17.24h387.46c30.65,0,59.37-5.75,86.19-17.24ZM8931.05,1811.51c20.1,8.62,37.82,20.59,53.13,35.91,15.33,15.32,27.29,33.03,35.92,53.14,8.61,20.11,12.91,41.66,12.91,64.64s-4.3,44.53-12.91,64.64c-8.63,20.11-20.59,37.82-35.92,53.14-15.32,15.32-33.03,27.29-53.13,35.91-20.12,8.62-41.66,12.93-64.65,12.93h-165.31v-187.61c1.84-15.22,5.69-29.78,11.63-43.64,8.61-20.11,20.59-37.82,35.9-53.14,15.33-15.32,33.04-27.29,53.16-35.91,20.1-8.62,41.64-12.92,64.63-12.92s44.53,4.3,64.65,12.92ZM8835.28,1616.17c16.27,16.28,24.42,35.91,24.42,58.89,0,16.61-4.64,31.76-13.89,45.49-9.25,13.73-21.54,23.79-36.86,30.16-42.17,11.33-78.11,33.58-107.86,66.62v-225.57h75.31c22.98,0,42.62,8.14,58.89,24.41ZM8510.05,1616.17c16.28-16.28,35.92-24.41,58.9-24.41h75.31v225.57c-29.76-33.04-65.7-55.29-107.87-66.62-15.32-6.37-27.6-16.43-36.86-30.16-9.24-13.72-13.88-28.87-13.88-45.49,0-22.98,8.13-42.61,24.4-58.89ZM8414.3,2118.89c-20.1-8.62-37.83-20.59-53.13-35.91-15.33-15.32-27.3-33.04-35.92-53.14-8.62-20.11-12.92-41.65-12.92-64.64s4.3-44.53,12.92-64.64c8.62-20.11,20.59-37.82,35.92-53.14,15.31-15.32,33.03-27.29,53.13-35.91,20.11-8.62,41.66-12.92,64.64-12.92s44.53,4.3,64.64,12.92c20.1,8.62,37.83,20.59,53.14,35.91,15.32,15.32,27.29,33.03,35.91,53.14,5.94,13.86,9.79,28.43,11.63,43.66v187.6h-165.32c-22.97,0-44.53-4.31-64.64-12.93Z"/>
  <path d="M8952.59,633.9c26.8-11.49,50.27-27.29,70.37-47.4,20.11-20.11,36.06-43.72,47.88-70.85,11.8-27.13,17.73-56.02,17.73-86.66,0-28.08-4.96-54.58-14.84-79.48-9.92-24.89-23.47-47.23-40.71-67.03-17.23-19.78-37.67-36.06-61.28-48.84-23.63-12.76-48.83-21.06-75.65-24.9,5.75-10.2,10.37-21.21,13.89-33.03,3.5-11.8,5.27-24.09,5.27-36.87,0-18.51-3.52-36.06-10.53-52.66-7.03-16.59-16.45-31.12-28.25-43.57-11.81-12.45-25.86-22.5-42.14-30.16-16.27-7.66-33.68-11.81-52.18-12.45h-218.93c-18.51.64-35.92,4.79-52.19,12.45-16.27,7.66-30.32,17.71-42.14,30.16-11.8,12.45-21.21,26.98-28.24,43.57-7.01,16.61-10.54,34.15-10.54,52.66,0,12.78,1.78,25.06,5.28,36.87,3.5,11.82,8.13,22.83,13.88,33.03-26.81,3.83-52.02,12.14-75.64,24.9-23.62,12.78-44.06,29.06-61.29,48.84-17.24,19.79-30.79,42.14-40.7,67.03-9.89,24.9-14.84,51.4-14.84,79.48,0,30.64,5.91,59.53,17.72,86.66,11.81,27.14,27.76,50.75,47.88,70.85,20.11,20.11,43.57,35.91,70.38,47.4,26.81,11.49,55.53,17.24,86.18,17.24h387.46c30.65,0,59.37-5.75,86.19-17.24ZM8931.05,275.3c20.1,8.62,37.82,20.59,53.13,35.91,15.33,15.32,27.29,33.03,35.92,53.14,8.61,20.11,12.91,41.66,12.91,64.64s-4.3,44.53-12.91,64.64c-8.63,20.11-20.59,37.82-35.92,53.14-15.32,15.32-33.03,27.29-53.13,35.91-20.12,8.62-41.66,12.93-64.65,12.93h-165.31v-187.61c1.84-15.22,5.69-29.78,11.63-43.64,8.61-20.11,20.59-37.82,35.9-53.14,15.33-15.32,33.04-27.29,53.16-35.91,20.1-8.62,41.64-12.92,64.63-12.92s44.53,4.3,64.65,12.92ZM8835.28,79.96c16.27,16.28,24.42,35.91,24.42,58.89,0,16.61-4.64,31.76-13.89,45.49-9.25,13.73-21.54,23.79-36.86,30.16-42.17,11.33-78.11,33.58-107.86,66.62V55.54h75.31c22.98,0,42.62,8.14,58.89,24.41ZM8510.05,79.96c16.28-16.28,35.92-24.41,58.9-24.41h75.31v225.57c-29.76-33.04-65.7-55.29-107.87-66.62-15.32-6.37-27.6-16.43-36.86-30.16-9.24-13.72-13.88-28.87-13.88-45.49,0-22.98,8.13-42.61,24.4-58.89ZM8414.3,582.67c-20.1-8.62-37.83-20.59-53.13-35.91-15.33-15.32-27.3-33.04-35.92-53.14-8.62-20.11-12.92-41.65-12.92-64.64s4.3-44.53,12.92-64.64c8.62-20.11,20.59-37.82,35.92-53.14,15.31-15.32,33.03-27.29,53.13-35.91,20.11-8.62,41.66-12.92,64.64-12.92s44.53,4.3,64.64,12.92c20.1,8.62,37.83,20.59,53.14,35.91,15.32,15.32,27.29,33.03,35.91,53.14,5.94,13.86,9.79,28.43,11.63,43.66v187.6h-165.32c-22.97,0-44.53-4.31-64.64-12.93Z"/>
  <g>
    <g>
      <path class="cls-2" d="M5486.13,1804.63c21.99,0,34.12,14.54,34.12,28.75,0,10.74-7.1,22-23.21,24.94v.35c18.53,2.77,27.53,14.89,27.53,28.92,0,15.07-11.08,31.35-40,31.35h-50.39v-114.29h51.95ZM5464.65,1853.99h10.39c10.05,0,16.28-7.97,16.28-19.22s-6.58-18.88-16.97-18.88h-9.7v38.1ZM5464.65,1907.5h11.26c11.43,0,17.49-8.66,17.49-20.95s-6.24-21.65-18.18-21.65h-10.56v42.6Z"/>
      <path class="cls-2" d="M5597.84,1804.63v114.29h-30.48v-114.29h30.48Z"/>
      <path class="cls-2" d="M5697.94,1803.77l46.93,115.16h-30.31l-12.82-34.12h-40.18l-5.37,13.85c-2.6,6.93-4.33,12.82-5.19,20.26h-18.53l47.1-115.16h18.36ZM5680.97,1832.68l-15.24,40.87h31.69l-16.1-40.87h-.35Z"/>
      <path class="cls-2" d="M5881,1804.63v115.16h-18.53l-69.62-76.03h-.52l1.73,49.18c.35,10.39.52,16.97,2.25,25.98h-17.67v-115.16h18.7l69.44,76.37h.52l-1.73-49.53c-.35-9.53-1.04-20.09-2.25-25.98h17.66Z"/>
      <path class="cls-2" d="M6027,1879.27v28.75c-10.74,8.31-24.59,12.64-40.52,12.64-39.48,0-63.56-24.07-63.56-58.88s24.07-58.88,63.38-58.88c15.76,0,29.61,4.16,40.35,12.64v28.75c-9.52-20.44-23.2-29.79-38.1-29.79-22.69,0-34.98,21.82-34.98,45.37s12.82,48.84,36.54,48.84c14.37,0,27.02-9,36.89-29.44Z"/>
      <path class="cls-2" d="M6123.65,1803.77l46.93,115.16h-30.31l-12.82-34.12h-40.18l-5.37,13.85c-2.6,6.93-4.33,12.82-5.2,20.26h-18.53l47.1-115.16h18.36ZM6106.68,1832.68l-15.24,40.87h31.69l-16.11-40.87h-.35Z"/>
      <path class="cls-2" d="M6316.59,1803.77l46.93,115.16h-30.31l-12.82-34.12h-40.18l-5.37,13.85c-2.6,6.93-4.33,12.82-5.19,20.26h-18.53l47.1-115.16h18.36ZM6299.62,1832.68l-15.24,40.87h31.69l-16.1-40.87h-.35Z"/>
      <path class="cls-2" d="M6398.17,1804.63h30.48v102.86h15.93c10.91,0,20.61-.69,25.98-2.08v13.51h-72.39v-114.29Z"/>
      <path class="cls-2" d="M6555.25,1804.63c37.58,0,61.83,23.55,61.83,57.15s-24.24,57.15-61.83,57.15h-45.72v-114.29h45.72ZM6540.01,1907.5h5.89c30.48,0,40.18-21.64,40.18-46.06s-9.35-45.55-40.18-45.55h-5.89v91.61Z"/>
      <path class="cls-2" d="M6707.14,1803.77l46.93,115.16h-30.31l-12.82-34.12h-40.18l-5.37,13.85c-2.6,6.93-4.33,12.82-5.2,20.26h-18.53l47.1-115.16h18.36ZM6690.17,1832.68l-15.24,40.87h31.69l-16.11-40.87h-.35Z"/>
      <path class="cls-2" d="M6847.6,1891.57h.87l42.08-87.8h19.05v115.16h-30.83l2.6-63.73h-.52l-31.35,64.6h-17.32l-30.48-64.6h-.52l1.73,37.75c.52,9.87.69,18.53,2.6,25.98h-17.67v-115.16h19.05l40.7,87.8Z"/>
      <path class="cls-2" d="M7009.71,1803.77l46.93,115.16h-30.31l-12.82-34.12h-40.18l-5.37,13.85c-2.6,6.93-4.33,12.82-5.2,20.26h-18.53l47.1-115.16h18.36ZM6992.74,1832.68l-15.24,40.87h31.69l-16.11-40.87h-.35Z"/>
    </g>
    <g>
      <path class="cls-2" d="M7057.02,1806.68c3.29,0,5.66,1.63,5.66,4.25,0,2.47-2.16,4.34-4.87,4.41h-.22l6.14,7.17h-3.43l-6.24-7.68v7.68h-2.95v-15.83h5.9ZM7055.7,1807.83h-1.63v6.72h1.51c2.83,0,4.05-1.63,4.05-3.5s-1.06-3.21-3.93-3.21Z"/>
      <path class="cls-2" d="M7056.65,1827.32c-6.73,0-12.21-5.48-12.21-12.21s5.48-12.21,12.21-12.21,12.21,5.48,12.21,12.21-5.48,12.21-12.21,12.21ZM7056.65,1804.39c-5.91,0-10.72,4.81-10.72,10.72s4.81,10.72,10.72,10.72,10.72-4.81,10.72-10.72-4.81-10.72-10.72-10.72Z"/>
    </g>
  </g>
  <g>
    <g>
      <path d="M5486.13,280.59c21.99,0,34.12,14.54,34.12,28.75,0,10.74-7.1,22-23.21,24.94v.35c18.53,2.77,27.53,14.89,27.53,28.92,0,15.07-11.08,31.35-40,31.35h-50.39v-114.29h51.95ZM5464.65,329.95h10.39c10.05,0,16.28-7.97,16.28-19.22s-6.58-18.88-16.97-18.88h-9.7v38.1ZM5464.65,383.45h11.26c11.43,0,17.49-8.66,17.49-20.95s-6.24-21.65-18.18-21.65h-10.56v42.6Z"/>
      <path d="M5597.84,280.59v114.29h-30.48v-114.29h30.48Z"/>
      <path d="M5697.94,279.72l46.93,115.16h-30.31l-12.82-34.12h-40.18l-5.37,13.85c-2.6,6.93-4.33,12.82-5.19,20.26h-18.53l47.1-115.16h18.36ZM5680.97,308.64l-15.24,40.87h31.69l-16.1-40.87h-.35Z"/>
      <path d="M5881,280.59v115.16h-18.53l-69.62-76.03h-.52l1.73,49.18c.35,10.39.52,16.97,2.25,25.98h-17.67v-115.16h18.7l69.44,76.37h.52l-1.73-49.53c-.35-9.53-1.04-20.09-2.25-25.98h17.66Z"/>
      <path d="M6027,355.23v28.75c-10.74,8.31-24.59,12.64-40.52,12.64-39.48,0-63.56-24.07-63.56-58.88s24.07-58.88,63.38-58.88c15.76,0,29.61,4.16,40.35,12.64v28.75c-9.52-20.44-23.2-29.79-38.1-29.79-22.69,0-34.98,21.82-34.98,45.37s12.82,48.84,36.54,48.84c14.37,0,27.02-9,36.89-29.44Z"/>
      <path d="M6123.65,279.72l46.93,115.16h-30.31l-12.82-34.12h-40.18l-5.37,13.85c-2.6,6.93-4.33,12.82-5.2,20.26h-18.53l47.1-115.16h18.36ZM6106.68,308.64l-15.24,40.87h31.69l-16.11-40.87h-.35Z"/>
      <path d="M6316.59,279.72l46.93,115.16h-30.31l-12.82-34.12h-40.18l-5.37,13.85c-2.6,6.93-4.33,12.82-5.19,20.26h-18.53l47.1-115.16h18.36ZM6299.62,308.64l-15.24,40.87h31.69l-16.1-40.87h-.35Z"/>
      <path d="M6398.17,280.59h30.48v102.86h15.93c10.91,0,20.61-.69,25.98-2.08v13.51h-72.39v-114.29Z"/>
      <path d="M6555.25,280.59c37.58,0,61.83,23.55,61.83,57.15s-24.24,57.15-61.83,57.15h-45.72v-114.29h45.72ZM6540.01,383.45h5.89c30.48,0,40.18-21.64,40.18-46.06s-9.35-45.55-40.18-45.55h-5.89v91.61Z"/>
      <path d="M6707.14,279.72l46.93,115.16h-30.31l-12.82-34.12h-40.18l-5.37,13.85c-2.6,6.93-4.33,12.82-5.2,20.26h-18.53l47.1-115.16h18.36ZM6690.17,308.64l-15.24,40.87h31.69l-16.11-40.87h-.35Z"/>
      <path d="M6847.6,367.52h.87l42.08-87.8h19.05v115.16h-30.83l2.6-63.73h-.52l-31.35,64.6h-17.32l-30.48-64.6h-.52l1.73,37.75c.52,9.87.69,18.53,2.6,25.98h-17.67v-115.16h19.05l40.7,87.8Z"/>
      <path d="M7009.71,279.72l46.93,115.16h-30.31l-12.82-34.12h-40.18l-5.37,13.85c-2.6,6.93-4.33,12.82-5.2,20.26h-18.53l47.1-115.16h18.36ZM6992.74,308.64l-15.24,40.87h31.69l-16.11-40.87h-.35Z"/>
    </g>
    <g>
      <path d="M7057.02,282.64c3.29,0,5.66,1.63,5.66,4.25,0,2.47-2.16,4.34-4.87,4.41h-.22l6.14,7.17h-3.43l-6.24-7.68v7.68h-2.95v-15.83h5.9ZM7055.7,283.79h-1.63v6.72h1.51c2.83,0,4.05-1.63,4.05-3.5s-1.06-3.21-3.93-3.21Z"/>
      <path d="M7056.65,303.28c-6.73,0-12.21-5.48-12.21-12.21s5.48-12.21,12.21-12.21,12.21,5.48,12.21,12.21-5.48,12.21-12.21,12.21ZM7056.65,280.34c-5.91,0-10.72,4.81-10.72,10.72s4.81,10.72,10.72,10.72,10.72-4.81,10.72-10.72-4.81-10.72-10.72-10.72Z"/>
    </g>
  </g>
  <g>
    <g>
      <g>
        <path class="cls-2" d="M2931.11,1697.12c21.99,0,34.12,14.54,34.12,28.75,0,10.74-7.1,22-23.21,24.94v.35c18.53,2.77,27.53,14.89,27.53,28.92,0,15.07-11.08,31.35-40,31.35h-50.39v-114.29h51.95ZM2909.64,1746.48h10.39c10.05,0,16.28-7.97,16.28-19.22s-6.58-18.88-16.97-18.88h-9.7v38.1ZM2909.64,1799.99h11.26c11.43,0,17.49-8.66,17.49-20.95s-6.24-21.65-18.18-21.65h-10.56v42.6Z"/>
        <path class="cls-2" d="M3042.82,1697.12v114.29h-30.48v-114.29h30.48Z"/>
        <path class="cls-2" d="M3142.93,1696.25l46.93,115.16h-30.31l-12.82-34.12h-40.18l-5.37,13.85c-2.6,6.93-4.33,12.82-5.19,20.26h-18.53l47.1-115.16h18.36ZM3125.95,1725.17l-15.24,40.87h31.69l-16.1-40.87h-.35Z"/>
        <path class="cls-2" d="M3325.99,1697.12v115.16h-18.53l-69.62-76.03h-.52l1.73,49.18c.35,10.39.52,16.97,2.25,25.98h-17.67v-115.16h18.7l69.44,76.37h.52l-1.73-49.53c-.35-9.53-1.04-20.09-2.25-25.98h17.66Z"/>
        <path class="cls-2" d="M3471.99,1771.76v28.75c-10.74,8.31-24.59,12.64-40.52,12.64-39.48,0-63.56-24.07-63.56-58.88s24.07-58.88,63.38-58.88c15.76,0,29.61,4.16,40.35,12.64v28.75c-9.52-20.44-23.2-29.79-38.1-29.79-22.69,0-34.98,21.82-34.98,45.37s12.82,48.84,36.54,48.84c14.37,0,27.02-9,36.89-29.44Z"/>
        <path class="cls-2" d="M3568.64,1696.25l46.93,115.16h-30.31l-12.82-34.12h-40.18l-5.37,13.85c-2.6,6.93-4.33,12.82-5.2,20.26h-18.53l47.1-115.16h18.36ZM3551.66,1725.17l-15.24,40.87h31.69l-16.11-40.87h-.35Z"/>
        <path class="cls-2" d="M3761.58,1696.25l46.93,115.16h-30.31l-12.82-34.12h-40.18l-5.37,13.85c-2.6,6.93-4.33,12.82-5.19,20.26h-18.53l47.1-115.16h18.36ZM3744.6,1725.17l-15.24,40.87h31.69l-16.1-40.87h-.35Z"/>
        <path class="cls-2" d="M3843.15,1697.12h30.48v102.86h15.93c10.91,0,20.61-.69,25.98-2.08v13.51h-72.39v-114.29Z"/>
        <path class="cls-2" d="M4000.24,1697.12c37.58,0,61.83,23.55,61.83,57.15s-24.24,57.15-61.83,57.15h-45.72v-114.29h45.72ZM3985,1799.99h5.89c30.48,0,40.18-21.64,40.18-46.06s-9.35-45.55-40.18-45.55h-5.89v91.61Z"/>
        <path class="cls-2" d="M4152.13,1696.25l46.93,115.16h-30.31l-12.82-34.12h-40.18l-5.37,13.85c-2.6,6.93-4.33,12.82-5.2,20.26h-18.53l47.1-115.16h18.36ZM4135.16,1725.17l-15.24,40.87h31.69l-16.11-40.87h-.35Z"/>
        <path class="cls-2" d="M4292.59,1784.06h.87l42.08-87.8h19.05v115.16h-30.83l2.6-63.73h-.52l-31.35,64.6h-17.32l-30.48-64.6h-.52l1.73,37.75c.52,9.87.69,18.53,2.6,25.98h-17.67v-115.16h19.05l40.7,87.8Z"/>
        <path class="cls-2" d="M4454.7,1696.25l46.93,115.16h-30.31l-12.82-34.12h-40.18l-5.37,13.85c-2.6,6.93-4.33,12.82-5.2,20.26h-18.53l47.1-115.16h18.36ZM4437.73,1725.17l-15.24,40.87h31.69l-16.11-40.87h-.35Z"/>
      </g>
      <g>
        <path class="cls-2" d="M3343.07,1965.12c6.03,1.55,10.57,3.98,13.62,7.3,3.05,3.32,4.58,7.73,4.58,13.21,0,6.72-2.61,12.05-7.82,15.99-5.22,3.94-12.61,5.91-22.19,5.91h-46.47v-81.12h47.52c8.27,0,14.72,1.81,19.36,5.44,4.64,3.64,6.95,8.77,6.95,15.42,0,4.17-1.37,7.74-4.11,10.72-2.74,2.98-6.55,5.35-11.42,7.12ZM3301.81,1940.44v19.58h27.58c3.78,0,6.7-.94,8.75-2.84,2.04-1.9,3.07-4.31,3.07-7.25,0-3.09-.93-5.44-2.78-7.07-1.85-1.62-4.48-2.43-7.88-2.43h-28.74ZM3331.6,1993.52c3.94,0,6.97-.93,9.1-2.78,2.12-1.85,3.19-4.52,3.19-8,0-2.93-1.1-5.31-3.3-7.12-2.2-1.81-5.35-2.72-9.44-2.72h-29.32v20.63h29.78Z"/>
        <path class="cls-2" d="M3389.31,1967.56c0-6.49,1.08-12.34,3.25-17.56,2.16-5.22,5.27-9.66,9.33-13.33,4.06-3.67,8.98-6.49,14.78-8.46,5.79-1.97,12.32-2.95,19.59-2.95s13.79.98,19.59,2.95c5.79,1.97,10.72,4.79,14.78,8.46,4.06,3.67,7.16,8.11,9.33,13.33,2.16,5.21,3.25,11.06,3.25,17.56s-1.08,11.94-3.25,17.04c-2.17,5.1-5.27,9.43-9.33,12.98-4.06,3.55-8.98,6.3-14.78,8.23-5.8,1.93-12.33,2.89-19.59,2.89s-13.79-.96-19.59-2.89c-5.79-1.93-10.72-4.68-14.78-8.23-4.06-3.55-7.17-7.88-9.33-12.98-2.16-5.1-3.25-10.78-3.25-17.04ZM3436.25,1994.56c9.66,0,17.05-2.33,22.19-7.01,5.14-4.67,7.71-11.33,7.71-19.99s-2.57-15.9-7.71-20.8c-5.14-4.9-12.54-7.36-22.19-7.36s-17.17,2.46-22.31,7.36c-5.14,4.9-7.71,11.84-7.71,20.8s2.57,15.32,7.71,19.99c5.14,4.68,12.57,7.01,22.31,7.01Z"/>
        <path class="cls-2" d="M3515.98,1975.79v-49.37h17.04v47.75c0,7.03,1.87,12.19,5.62,15.47,3.75,3.28,9.29,4.92,16.63,4.92s12.98-1.64,16.69-4.92c3.71-3.28,5.56-8.44,5.56-15.47v-47.75h17.04v49.37c0,10.97-3.46,19.2-10.37,24.69-6.92,5.49-16.56,8.23-28.92,8.23s-22-2.74-28.92-8.23c-6.92-5.48-10.37-13.72-10.37-24.69Z"/>
        <path class="cls-2" d="M3703.96,1940.56h-30.6v66.98h-17.04v-66.98h-30.6v-14.14h78.23v14.14Z"/>
        <path class="cls-2" d="M3737.1,1926.42h17.04v81.12h-17.04v-81.12Z"/>
        <path class="cls-2" d="M3864.7,2012.41c2.01,0,4.04-.36,6.08-1.1,2.05-.74,4.19-1.99,6.43-3.77l5.33,17.15c-2.24,1-4.63,1.83-7.18,2.49-2.55.66-5.14.99-7.77.99-2.78,0-5.47-.39-8.05-1.16-2.59-.77-4.87-1.97-6.84-3.59-1.97-1.62-3.52-3.71-4.63-6.25-1.12-2.55-1.61-5.64-1.45-9.27-1.78.31-3.55.52-5.33.64-1.78.12-3.63.17-5.56.17-7.26,0-13.79-.96-19.59-2.89-5.79-1.93-10.72-4.68-14.78-8.23-4.06-3.55-7.17-7.88-9.33-12.98-2.16-5.1-3.25-10.78-3.25-17.04s1.08-12.34,3.25-17.56c2.16-5.22,5.27-9.66,9.33-13.33,4.06-3.67,8.98-6.49,14.78-8.46,5.79-1.97,12.32-2.95,19.59-2.95s13.79.98,19.59,2.95c5.79,1.97,10.72,4.79,14.78,8.46,4.06,3.67,7.16,8.11,9.33,13.33,2.16,5.21,3.25,11.06,3.25,17.56,0,9.81-2.55,18.06-7.65,24.74-5.1,6.68-12.25,11.38-21.44,14.08,1.31,2.08,2.95,3.61,4.92,4.57,1.97.97,4.04,1.45,6.2,1.45ZM3805.71,1967.56c0,8.66,2.57,15.32,7.71,19.99,5.14,4.68,12.57,7.01,22.31,7.01s17.05-2.33,22.19-7.01c5.14-4.67,7.71-11.33,7.71-19.99s-2.57-15.9-7.71-20.8c-5.14-4.9-12.54-7.36-22.19-7.36s-17.17,2.46-22.31,7.36c-5.14,4.9-7.71,11.84-7.71,20.8Z"/>
        <path class="cls-2" d="M3913.49,1975.79v-49.37h17.04v47.75c0,7.03,1.87,12.19,5.62,15.47,3.75,3.28,9.29,4.92,16.63,4.92s12.98-1.64,16.69-4.92c3.71-3.28,5.56-8.44,5.56-15.47v-47.75h17.04v49.37c0,10.97-3.46,19.2-10.37,24.69-6.92,5.49-16.56,8.23-28.92,8.23s-22-2.74-28.92-8.23c-6.92-5.48-10.37-13.72-10.37-24.69Z"/>
        <path class="cls-2" d="M4028.91,2007.54v-81.12h66.06v14.14h-49.02v19.47h44.85v14.14h-44.85v19.24h50.06v14.14h-67.1Z"/>
      </g>
    </g>
    <g>
      <path class="cls-2" d="M4502,1699.17c3.29,0,5.66,1.63,5.66,4.25,0,2.47-2.16,4.34-4.87,4.41h-.22l6.14,7.17h-3.43l-6.24-7.68v7.68h-2.95v-15.83h5.9ZM4500.69,1700.32h-1.63v6.72h1.51c2.83,0,4.05-1.63,4.05-3.5s-1.06-3.21-3.93-3.21Z"/>
      <path class="cls-2" d="M4501.63,1719.81c-6.73,0-12.21-5.48-12.21-12.21s5.48-12.21,12.21-12.21,12.21,5.48,12.21,12.21-5.48,12.21-12.21,12.21ZM4501.63,1696.88c-5.91,0-10.72,4.81-10.72,10.72s4.81,10.72,10.72,10.72,10.72-4.81,10.72-10.72-4.81-10.72-10.72-10.72Z"/>
    </g>
  </g>
  <g>
    <g>
      <g>
        <path d="M2931.11,173.08c21.99,0,34.12,14.54,34.12,28.75,0,10.74-7.1,22-23.21,24.94v.35c18.53,2.77,27.53,14.89,27.53,28.92,0,15.07-11.08,31.35-40,31.35h-50.39v-114.29h51.95ZM2909.64,222.43h10.39c10.05,0,16.28-7.97,16.28-19.22s-6.58-18.88-16.97-18.88h-9.7v38.1ZM2909.64,275.94h11.26c11.43,0,17.49-8.66,17.49-20.95s-6.24-21.65-18.18-21.65h-10.56v42.6Z"/>
        <path d="M3042.82,173.08v114.29h-30.48v-114.29h30.48Z"/>
        <path d="M3142.93,172.21l46.93,115.16h-30.31l-12.82-34.12h-40.18l-5.37,13.85c-2.6,6.93-4.33,12.82-5.19,20.26h-18.53l47.1-115.16h18.36ZM3125.95,201.13l-15.24,40.87h31.69l-16.1-40.87h-.35Z"/>
        <path d="M3325.99,173.08v115.16h-18.53l-69.62-76.03h-.52l1.73,49.18c.35,10.39.52,16.97,2.25,25.98h-17.67v-115.16h18.7l69.44,76.37h.52l-1.73-49.53c-.35-9.53-1.04-20.09-2.25-25.98h17.66Z"/>
        <path d="M3471.99,247.71v28.75c-10.74,8.31-24.59,12.64-40.52,12.64-39.48,0-63.56-24.07-63.56-58.88s24.07-58.88,63.38-58.88c15.76,0,29.61,4.16,40.35,12.64v28.75c-9.52-20.44-23.2-29.79-38.1-29.79-22.69,0-34.98,21.82-34.98,45.37s12.82,48.84,36.54,48.84c14.37,0,27.02-9,36.89-29.44Z"/>
        <path d="M3568.64,172.21l46.93,115.16h-30.31l-12.82-34.12h-40.18l-5.37,13.85c-2.6,6.93-4.33,12.82-5.2,20.26h-18.53l47.1-115.16h18.36ZM3551.66,201.13l-15.24,40.87h31.69l-16.11-40.87h-.35Z"/>
        <path d="M3761.58,172.21l46.93,115.16h-30.31l-12.82-34.12h-40.18l-5.37,13.85c-2.6,6.93-4.33,12.82-5.19,20.26h-18.53l47.1-115.16h18.36ZM3744.6,201.13l-15.24,40.87h31.69l-16.1-40.87h-.35Z"/>
        <path d="M3843.15,173.08h30.48v102.86h15.93c10.91,0,20.61-.69,25.98-2.08v13.51h-72.39v-114.29Z"/>
        <path d="M4000.24,173.08c37.58,0,61.83,23.55,61.83,57.15s-24.24,57.15-61.83,57.15h-45.72v-114.29h45.72ZM3985,275.94h5.89c30.48,0,40.18-21.64,40.18-46.06s-9.35-45.55-40.18-45.55h-5.89v91.61Z"/>
        <path d="M4152.13,172.21l46.93,115.16h-30.31l-12.82-34.12h-40.18l-5.37,13.85c-2.6,6.93-4.33,12.82-5.2,20.26h-18.53l47.1-115.16h18.36ZM4135.16,201.13l-15.24,40.87h31.69l-16.11-40.87h-.35Z"/>
        <path d="M4292.59,260.01h.87l42.08-87.8h19.05v115.16h-30.83l2.6-63.73h-.52l-31.35,64.6h-17.32l-30.48-64.6h-.52l1.73,37.75c.52,9.87.69,18.53,2.6,25.98h-17.67v-115.16h19.05l40.7,87.8Z"/>
        <path d="M4454.7,172.21l46.93,115.16h-30.31l-12.82-34.12h-40.18l-5.37,13.85c-2.6,6.93-4.33,12.82-5.2,20.26h-18.53l47.1-115.16h18.36ZM4437.73,201.13l-15.24,40.87h31.69l-16.11-40.87h-.35Z"/>
      </g>
      <g>
        <path d="M3343.07,441.08c6.03,1.55,10.57,3.98,13.62,7.3,3.05,3.32,4.58,7.73,4.58,13.21,0,6.72-2.61,12.05-7.82,15.99-5.22,3.94-12.61,5.91-22.19,5.91h-46.47v-81.12h47.52c8.27,0,14.72,1.81,19.36,5.44,4.64,3.64,6.95,8.77,6.95,15.42,0,4.17-1.37,7.74-4.11,10.72-2.74,2.98-6.55,5.35-11.42,7.12ZM3301.81,416.4v19.58h27.58c3.78,0,6.7-.94,8.75-2.84,2.04-1.9,3.07-4.31,3.07-7.25,0-3.09-.93-5.44-2.78-7.07-1.85-1.62-4.48-2.43-7.88-2.43h-28.74ZM3331.6,469.47c3.94,0,6.97-.93,9.1-2.78,2.12-1.85,3.19-4.52,3.19-8,0-2.93-1.1-5.31-3.3-7.12-2.2-1.81-5.35-2.72-9.44-2.72h-29.32v20.63h29.78Z"/>
        <path d="M3389.31,443.52c0-6.49,1.08-12.34,3.25-17.56,2.16-5.22,5.27-9.66,9.33-13.33,4.06-3.67,8.98-6.49,14.78-8.46,5.79-1.97,12.32-2.95,19.59-2.95s13.79.98,19.59,2.95c5.79,1.97,10.72,4.79,14.78,8.46,4.06,3.67,7.16,8.11,9.33,13.33,2.16,5.21,3.25,11.06,3.25,17.56s-1.08,11.94-3.25,17.04c-2.17,5.1-5.27,9.43-9.33,12.98-4.06,3.55-8.98,6.3-14.78,8.23-5.8,1.93-12.33,2.89-19.59,2.89s-13.79-.96-19.59-2.89c-5.79-1.93-10.72-4.68-14.78-8.23-4.06-3.55-7.17-7.88-9.33-12.98-2.16-5.1-3.25-10.78-3.25-17.04ZM3436.25,470.52c9.66,0,17.05-2.33,22.19-7.01,5.14-4.67,7.71-11.33,7.71-19.99s-2.57-15.9-7.71-20.8c-5.14-4.9-12.54-7.36-22.19-7.36s-17.17,2.46-22.31,7.36c-5.14,4.9-7.71,11.84-7.71,20.8s2.57,15.32,7.71,19.99c5.14,4.68,12.57,7.01,22.31,7.01Z"/>
        <path d="M3515.98,451.74v-49.37h17.04v47.75c0,7.03,1.87,12.19,5.62,15.47,3.75,3.28,9.29,4.92,16.63,4.92s12.98-1.64,16.69-4.92c3.71-3.28,5.56-8.44,5.56-15.47v-47.75h17.04v49.37c0,10.97-3.46,19.2-10.37,24.69-6.92,5.49-16.56,8.23-28.92,8.23s-22-2.74-28.92-8.23c-6.92-5.48-10.37-13.72-10.37-24.69Z"/>
        <path d="M3703.96,416.51h-30.6v66.98h-17.04v-66.98h-30.6v-14.14h78.23v14.14Z"/>
        <path d="M3737.1,402.38h17.04v81.12h-17.04v-81.12Z"/>
        <path d="M3864.7,488.36c2.01,0,4.04-.36,6.08-1.1,2.05-.74,4.19-1.99,6.43-3.77l5.33,17.15c-2.24,1-4.63,1.83-7.18,2.49-2.55.66-5.14.99-7.77.99-2.78,0-5.47-.39-8.05-1.16-2.59-.77-4.87-1.97-6.84-3.59-1.97-1.62-3.52-3.71-4.63-6.25-1.12-2.55-1.61-5.64-1.45-9.27-1.78.31-3.55.52-5.33.64-1.78.12-3.63.17-5.56.17-7.26,0-13.79-.96-19.59-2.89-5.79-1.93-10.72-4.68-14.78-8.23-4.06-3.55-7.17-7.88-9.33-12.98-2.16-5.1-3.25-10.78-3.25-17.04s1.08-12.34,3.25-17.56c2.16-5.22,5.27-9.66,9.33-13.33,4.06-3.67,8.98-6.49,14.78-8.46,5.79-1.97,12.32-2.95,19.59-2.95s13.79.98,19.59,2.95c5.79,1.97,10.72,4.79,14.78,8.46,4.06,3.67,7.16,8.11,9.33,13.33,2.16,5.21,3.25,11.06,3.25,17.56,0,9.81-2.55,18.06-7.65,24.74-5.1,6.68-12.25,11.38-21.44,14.08,1.31,2.08,2.95,3.61,4.92,4.57,1.97.97,4.04,1.45,6.2,1.45ZM3805.71,443.52c0,8.66,2.57,15.32,7.71,19.99,5.14,4.68,12.57,7.01,22.31,7.01s17.05-2.33,22.19-7.01c5.14-4.67,7.71-11.33,7.71-19.99s-2.57-15.9-7.71-20.8c-5.14-4.9-12.54-7.36-22.19-7.36s-17.17,2.46-22.31,7.36c-5.14,4.9-7.71,11.84-7.71,20.8Z"/>
        <path d="M3913.49,451.74v-49.37h17.04v47.75c0,7.03,1.87,12.19,5.62,15.47,3.75,3.28,9.29,4.92,16.63,4.92s12.98-1.64,16.69-4.92c3.71-3.28,5.56-8.44,5.56-15.47v-47.75h17.04v49.37c0,10.97-3.46,19.2-10.37,24.69-6.92,5.49-16.56,8.23-28.92,8.23s-22-2.74-28.92-8.23c-6.92-5.48-10.37-13.72-10.37-24.69Z"/>
        <path d="M4028.91,483.5v-81.12h66.06v14.14h-49.02v19.47h44.85v14.14h-44.85v19.24h50.06v14.14h-67.1Z"/>
      </g>
    </g>
    <g>
      <path d="M4502,175.13c3.29,0,5.66,1.63,5.66,4.25,0,2.47-2.16,4.34-4.87,4.41h-.22l6.14,7.17h-3.43l-6.24-7.68v7.68h-2.95v-15.83h5.9ZM4500.69,176.28h-1.63v6.72h1.51c2.83,0,4.05-1.63,4.05-3.5s-1.06-3.21-3.93-3.21Z"/>
      <path d="M4501.63,195.77c-6.73,0-12.21-5.48-12.21-12.21s5.48-12.21,12.21-12.21,12.21,5.48,12.21,12.21-5.48,12.21-12.21,12.21ZM4501.63,172.83c-5.91,0-10.72,4.81-10.72,10.72s4.81,10.72,10.72,10.72,10.72-4.81,10.72-10.72-4.81-10.72-10.72-10.72Z"/>
    </g>
  </g>
  <g>
    <g>
      <path class="cls-1" d="M1269.3,3501.68c10.12-4.34,18.98-10.3,26.57-17.9,7.59-7.59,13.62-16.51,18.08-26.75,4.46-10.24,6.69-21.15,6.69-32.72,0-10.6-1.87-20.61-5.6-30.01-3.74-9.4-8.86-17.83-15.37-25.31-6.5-7.47-14.22-13.61-23.14-18.44-8.92-4.82-18.44-7.95-28.56-9.4,2.17-3.85,3.92-8.01,5.24-12.47,1.32-4.46,1.99-9.09,1.99-13.92,0-6.99-1.33-13.61-3.97-19.88-2.66-6.27-6.21-11.75-10.67-16.45-4.46-4.7-9.76-8.5-15.91-11.39-6.14-2.89-12.72-4.46-19.7-4.7h-82.66c-6.99.24-13.56,1.81-19.71,4.7-6.14,2.89-11.45,6.69-15.91,11.39-4.46,4.7-8.01,10.19-10.66,16.45-2.65,6.27-3.98,12.9-3.98,19.88,0,4.82.67,9.46,1.99,13.92,1.32,4.46,3.07,8.62,5.24,12.47-10.12,1.45-19.64,4.58-28.56,9.4-8.92,4.82-16.64,10.97-23.14,18.44-6.51,7.47-11.63,15.91-15.37,25.31-3.74,9.4-5.6,19.41-5.6,30.01,0,11.57,2.23,22.48,6.69,32.72,4.46,10.25,10.48,19.16,18.08,26.75,7.59,7.59,16.45,13.56,26.57,17.9,10.12,4.34,20.97,6.51,32.54,6.51h146.3c11.57,0,22.42-2.17,32.54-6.51ZM1261.17,3366.29c7.59,3.25,14.28,7.77,20.06,13.56,5.79,5.78,10.3,12.47,13.56,20.06,3.25,7.59,4.88,15.73,4.88,24.4s-1.63,16.81-4.88,24.4c-3.26,7.59-7.77,14.28-13.56,20.07-5.78,5.78-12.47,10.3-20.06,13.56-7.6,3.25-15.73,4.88-24.41,4.88h-62.42v-70.84c.7-5.75,2.15-11.24,4.39-16.48,3.25-7.59,7.77-14.28,13.55-20.06,5.79-5.79,12.48-10.31,20.07-13.56,7.59-3.25,15.72-4.88,24.4-4.88s16.81,1.63,24.41,4.88ZM1225.01,3292.53c6.14,6.15,9.22,13.56,9.22,22.24,0,6.27-1.75,11.99-5.24,17.17-3.49,5.19-8.13,8.98-13.92,11.39-15.92,4.28-29.49,12.68-40.73,25.15v-85.17h28.43c8.68,0,16.09,3.07,22.24,9.22ZM1102.21,3292.53c6.15-6.15,13.56-9.22,22.24-9.22h28.43v85.17c-11.24-12.48-24.81-20.88-40.73-25.15-5.78-2.41-10.42-6.2-13.92-11.39-3.49-5.18-5.24-10.9-5.24-17.17,0-8.68,3.07-16.09,9.21-22.24ZM1066.06,3482.34c-7.59-3.25-14.28-7.77-20.06-13.56-5.79-5.79-10.31-12.47-13.56-20.07-3.25-7.59-4.88-15.73-4.88-24.4s1.63-16.81,4.88-24.4c3.25-7.59,7.77-14.28,13.56-20.06,5.78-5.79,12.47-10.31,20.06-13.56,7.59-3.25,15.73-4.88,24.4-4.88s16.81,1.63,24.41,4.88c7.59,3.25,14.28,7.77,20.07,13.56,5.78,5.78,10.3,12.47,13.56,20.06,2.24,5.23,3.7,10.73,4.39,16.48v70.83h-62.42c-8.67,0-16.81-1.63-24.4-4.88Z"/>
      <g>
        <path d="M404.33,3627.4c21.99,0,34.12,14.54,34.12,28.75,0,10.74-7.1,22-23.21,24.94v.35c18.53,2.77,27.53,14.89,27.53,28.92,0,15.07-11.08,31.35-40,31.35h-50.39v-114.29h51.95ZM382.85,3676.75h10.39c10.05,0,16.28-7.97,16.28-19.22s-6.58-18.88-16.97-18.88h-9.7v38.1ZM382.85,3730.26h11.26c11.43,0,17.49-8.66,17.49-20.95s-6.24-21.65-18.18-21.65h-10.56v42.6Z"/>
        <path d="M516.04,3627.4v114.29h-30.48v-114.29h30.48Z"/>
        <path d="M616.14,3626.53l46.93,115.16h-30.31l-12.82-34.12h-40.18l-5.37,13.85c-2.6,6.93-4.33,12.82-5.19,20.26h-18.53l47.1-115.16h18.36ZM599.17,3655.45l-15.24,40.87h31.69l-16.1-40.87h-.35Z"/>
        <path d="M799.2,3627.4v115.16h-18.53l-69.62-76.03h-.52l1.73,49.18c.35,10.39.52,16.97,2.25,25.98h-17.67v-115.16h18.7l69.44,76.37h.52l-1.73-49.53c-.35-9.53-1.04-20.09-2.25-25.98h17.66Z"/>
        <path d="M945.21,3702.03v28.75c-10.74,8.31-24.59,12.64-40.52,12.64-39.48,0-63.56-24.07-63.56-58.88s24.07-58.88,63.38-58.88c15.76,0,29.61,4.16,40.35,12.64v28.75c-9.52-20.44-23.2-29.79-38.1-29.79-22.69,0-34.98,21.82-34.98,45.37s12.82,48.84,36.54,48.84c14.37,0,27.02-9,36.89-29.44Z"/>
        <path d="M1041.85,3626.53l46.93,115.16h-30.31l-12.82-34.12h-40.18l-5.37,13.85c-2.6,6.93-4.33,12.82-5.2,20.26h-18.53l47.1-115.16h18.36ZM1024.88,3655.45l-15.24,40.87h31.69l-16.11-40.87h-.35Z"/>
        <path d="M1234.79,3626.53l46.93,115.16h-30.31l-12.82-34.12h-40.18l-5.37,13.85c-2.6,6.93-4.33,12.82-5.19,20.26h-18.53l47.1-115.16h18.36ZM1217.82,3655.45l-15.24,40.87h31.69l-16.1-40.87h-.35Z"/>
        <path d="M1316.37,3627.4h30.48v102.86h15.93c10.91,0,20.61-.69,25.98-2.08v13.51h-72.39v-114.29Z"/>
        <path d="M1473.45,3627.4c37.58,0,61.83,23.55,61.83,57.15s-24.24,57.15-61.83,57.15h-45.72v-114.29h45.72ZM1458.21,3730.26h5.89c30.48,0,40.18-21.64,40.18-46.06s-9.35-45.55-40.18-45.55h-5.89v91.61Z"/>
        <path d="M1625.35,3626.53l46.93,115.16h-30.31l-12.82-34.12h-40.18l-5.37,13.85c-2.6,6.93-4.33,12.82-5.2,20.26h-18.53l47.1-115.16h18.36ZM1608.37,3655.45l-15.24,40.87h31.69l-16.11-40.87h-.35Z"/>
        <path d="M1765.81,3714.33h.87l42.08-87.8h19.05v115.16h-30.83l2.6-63.73h-.52l-31.35,64.6h-17.32l-30.48-64.6h-.52l1.73,37.75c.52,9.87.69,18.53,2.6,25.98h-17.67v-115.16h19.05l40.7,87.8Z"/>
        <path d="M1927.92,3626.53l46.93,115.16h-30.31l-12.82-34.12h-40.18l-5.37,13.85c-2.6,6.93-4.33,12.82-5.2,20.26h-18.53l47.1-115.16h18.36ZM1910.94,3655.45l-15.24,40.87h31.69l-16.11-40.87h-.35Z"/>
      </g>
      <g>
        <path d="M816.29,3895.4c6.03,1.55,10.57,3.98,13.62,7.3,3.05,3.32,4.58,7.73,4.58,13.21,0,6.72-2.61,12.05-7.82,15.99-5.22,3.94-12.61,5.91-22.19,5.91h-46.47v-81.12h47.52c8.27,0,14.72,1.81,19.36,5.44,4.64,3.64,6.95,8.77,6.95,15.42,0,4.17-1.37,7.74-4.11,10.72-2.74,2.98-6.55,5.35-11.42,7.12ZM775.03,3870.72v19.58h27.58c3.78,0,6.7-.94,8.75-2.84,2.04-1.9,3.07-4.31,3.07-7.25,0-3.09-.93-5.44-2.78-7.07-1.85-1.62-4.48-2.43-7.88-2.43h-28.74ZM804.81,3923.79c3.94,0,6.97-.93,9.1-2.78,2.12-1.85,3.19-4.52,3.19-8,0-2.93-1.1-5.31-3.3-7.12-2.2-1.81-5.35-2.72-9.44-2.72h-29.32v20.63h29.78Z"/>
        <path d="M862.53,3897.83c0-6.49,1.08-12.34,3.25-17.56,2.16-5.22,5.27-9.66,9.33-13.33,4.06-3.67,8.98-6.49,14.78-8.46,5.79-1.97,12.32-2.95,19.59-2.95s13.79.98,19.59,2.95c5.79,1.97,10.72,4.79,14.78,8.46,4.06,3.67,7.16,8.11,9.33,13.33,2.16,5.21,3.25,11.06,3.25,17.56s-1.08,11.94-3.25,17.04c-2.17,5.1-5.27,9.43-9.33,12.98-4.06,3.55-8.98,6.3-14.78,8.23-5.8,1.93-12.33,2.89-19.59,2.89s-13.79-.96-19.59-2.89c-5.79-1.93-10.72-4.68-14.78-8.23-4.06-3.55-7.17-7.88-9.33-12.98-2.16-5.1-3.25-10.78-3.25-17.04ZM909.46,3924.83c9.66,0,17.05-2.33,22.19-7.01,5.14-4.67,7.71-11.33,7.71-19.99s-2.57-15.9-7.71-20.8c-5.14-4.9-12.54-7.36-22.19-7.36s-17.17,2.46-22.31,7.36c-5.14,4.9-7.71,11.84-7.71,20.8s2.57,15.32,7.71,19.99c5.14,4.68,12.57,7.01,22.31,7.01Z"/>
        <path d="M989.2,3906.06v-49.37h17.04v47.75c0,7.03,1.87,12.19,5.62,15.47,3.75,3.28,9.29,4.92,16.63,4.92s12.98-1.64,16.69-4.92c3.71-3.28,5.56-8.44,5.56-15.47v-47.75h17.04v49.37c0,10.97-3.46,19.2-10.37,24.69-6.92,5.49-16.56,8.23-28.92,8.23s-22-2.74-28.92-8.23c-6.92-5.48-10.37-13.72-10.37-24.69Z"/>
        <path d="M1177.17,3870.83h-30.6v66.98h-17.04v-66.98h-30.6v-14.14h78.23v14.14Z"/>
        <path d="M1210.32,3856.69h17.04v81.12h-17.04v-81.12Z"/>
        <path d="M1337.91,3942.68c2.01,0,4.04-.36,6.08-1.1,2.05-.74,4.19-1.99,6.43-3.77l5.33,17.15c-2.24,1-4.63,1.83-7.18,2.49-2.55.66-5.14.99-7.77.99-2.78,0-5.47-.39-8.05-1.16-2.59-.77-4.87-1.97-6.84-3.59-1.97-1.62-3.52-3.71-4.63-6.25-1.12-2.55-1.61-5.64-1.45-9.27-1.78.31-3.55.52-5.33.64s-3.63.17-5.56.17c-7.26,0-13.79-.96-19.59-2.89-5.79-1.93-10.72-4.68-14.78-8.23-4.06-3.55-7.17-7.88-9.33-12.98-2.16-5.1-3.25-10.78-3.25-17.04s1.08-12.34,3.25-17.56c2.16-5.22,5.27-9.66,9.33-13.33,4.06-3.67,8.98-6.49,14.78-8.46,5.79-1.97,12.32-2.95,19.59-2.95s13.79.98,19.59,2.95c5.79,1.97,10.72,4.79,14.78,8.46,4.06,3.67,7.16,8.11,9.33,13.33,2.16,5.21,3.25,11.06,3.25,17.56,0,9.81-2.55,18.06-7.65,24.74-5.1,6.68-12.25,11.38-21.44,14.08,1.31,2.08,2.95,3.61,4.92,4.57,1.97.97,4.04,1.45,6.2,1.45ZM1278.93,3897.83c0,8.66,2.57,15.32,7.71,19.99,5.14,4.68,12.57,7.01,22.31,7.01s17.05-2.33,22.19-7.01c5.14-4.67,7.71-11.33,7.71-19.99s-2.57-15.9-7.71-20.8c-5.14-4.9-12.54-7.36-22.19-7.36s-17.17,2.46-22.31,7.36c-5.14,4.9-7.71,11.84-7.71,20.8Z"/>
        <path d="M1386.7,3906.06v-49.37h17.04v47.75c0,7.03,1.87,12.19,5.62,15.47,3.75,3.28,9.29,4.92,16.63,4.92s12.98-1.64,16.69-4.92c3.71-3.28,5.56-8.44,5.56-15.47v-47.75h17.04v49.37c0,10.97-3.46,19.2-10.37,24.69-6.92,5.49-16.56,8.23-28.92,8.23s-22-2.74-28.92-8.23c-6.92-5.48-10.37-13.72-10.37-24.69Z"/>
        <path d="M1502.13,3937.82v-81.12h66.06v14.14h-49.02v19.47h44.85v14.14h-44.85v19.24h50.06v14.14h-67.1Z"/>
      </g>
    </g>
    <g>
      <path d="M1975.22,3629.45c3.29,0,5.66,1.63,5.66,4.25,0,2.47-2.16,4.34-4.87,4.41h-.22l6.14,7.17h-3.43l-6.24-7.68v7.68h-2.95v-15.83h5.9ZM1973.9,3630.6h-1.63v6.72h1.51c2.83,0,4.05-1.63,4.05-3.5s-1.06-3.21-3.93-3.21Z"/>
      <path d="M1974.85,3650.09c-6.73,0-12.21-5.48-12.21-12.21s5.48-12.21,12.21-12.21,12.21,5.48,12.21,12.21-5.48,12.21-12.21,12.21ZM1974.85,3627.15c-5.91,0-10.72,4.81-10.72,10.72s4.81,10.72,10.72,10.72,10.72-4.81,10.72-10.72-4.81-10.72-10.72-10.72Z"/>
    </g>
  </g>
  <rect y="4415.89" width="2324.07" height="1380.6"/>
  <g>
    <g>
      <g>
        <path class="cls-1" d="M1269.3,5007.8c10.12-4.34,18.98-10.3,26.57-17.9,7.59-7.59,13.62-16.51,18.08-26.75,4.46-10.24,6.69-21.15,6.69-32.72,0-10.6-1.87-20.61-5.6-30.01-3.74-9.4-8.86-17.83-15.37-25.31-6.5-7.47-14.22-13.61-23.14-18.44-8.92-4.82-18.44-7.95-28.56-9.4,2.17-3.85,3.92-8.01,5.24-12.47,1.32-4.46,1.99-9.09,1.99-13.92,0-6.99-1.33-13.61-3.97-19.88-2.66-6.27-6.21-11.75-10.67-16.45-4.46-4.7-9.76-8.5-15.91-11.39-6.14-2.89-12.72-4.46-19.7-4.7h-82.66c-6.99.24-13.56,1.81-19.71,4.7-6.14,2.89-11.45,6.69-15.91,11.39-4.46,4.7-8.01,10.19-10.66,16.45-2.65,6.27-3.98,12.9-3.98,19.88,0,4.82.67,9.46,1.99,13.92,1.32,4.46,3.07,8.62,5.24,12.47-10.12,1.45-19.64,4.58-28.56,9.4-8.92,4.82-16.64,10.97-23.14,18.44-6.51,7.47-11.63,15.91-15.37,25.31-3.74,9.4-5.6,19.41-5.6,30.01,0,11.57,2.23,22.48,6.69,32.72,4.46,10.25,10.48,19.16,18.08,26.75,7.59,7.59,16.45,13.56,26.57,17.9,10.12,4.34,20.97,6.51,32.54,6.51h146.3c11.57,0,22.42-2.17,32.54-6.51ZM1261.17,4872.4c7.59,3.25,14.28,7.77,20.06,13.56,5.79,5.78,10.3,12.47,13.56,20.06,3.25,7.59,4.88,15.73,4.88,24.4s-1.63,16.81-4.88,24.4c-3.26,7.59-7.77,14.28-13.56,20.07-5.78,5.78-12.47,10.3-20.06,13.56-7.6,3.25-15.73,4.88-24.41,4.88h-62.42v-70.84c.7-5.75,2.15-11.24,4.39-16.48,3.25-7.59,7.77-14.28,13.55-20.06,5.79-5.79,12.48-10.31,20.07-13.56,7.59-3.25,15.72-4.88,24.4-4.88s16.81,1.63,24.41,4.88ZM1225.01,4798.65c6.14,6.15,9.22,13.56,9.22,22.24,0,6.27-1.75,11.99-5.24,17.17-3.49,5.19-8.13,8.98-13.92,11.39-15.92,4.28-29.49,12.68-40.73,25.15v-85.17h28.43c8.68,0,16.09,3.07,22.24,9.22ZM1102.21,4798.65c6.15-6.15,13.56-9.22,22.24-9.22h28.43v85.17c-11.24-12.48-24.81-20.88-40.73-25.15-5.78-2.41-10.42-6.2-13.92-11.39-3.49-5.18-5.24-10.9-5.24-17.17,0-8.68,3.07-16.09,9.21-22.24ZM1066.06,4988.46c-7.59-3.25-14.28-7.77-20.06-13.56-5.79-5.79-10.31-12.47-13.56-20.07-3.25-7.59-4.88-15.73-4.88-24.4s1.63-16.81,4.88-24.4c3.25-7.59,7.77-14.28,13.56-20.06,5.78-5.79,12.47-10.31,20.06-13.56,7.59-3.25,15.73-4.88,24.4-4.88s16.81,1.63,24.41,4.88c7.59,3.25,14.28,7.77,20.07,13.56,5.78,5.78,10.3,12.47,13.56,20.06,2.24,5.23,3.7,10.73,4.39,16.48v70.83h-62.42c-8.67,0-16.81-1.63-24.4-4.88Z"/>
        <g>
          <path class="cls-2" d="M404.33,5133.51c21.99,0,34.12,14.54,34.12,28.75,0,10.74-7.1,22-23.21,24.94v.35c18.53,2.77,27.53,14.89,27.53,28.92,0,15.07-11.08,31.35-40,31.35h-50.39v-114.29h51.95ZM382.85,5182.87h10.39c10.05,0,16.28-7.97,16.28-19.22s-6.58-18.88-16.97-18.88h-9.7v38.1ZM382.85,5236.37h11.26c11.43,0,17.49-8.66,17.49-20.95s-6.24-21.65-18.18-21.65h-10.56v42.6Z"/>
          <path class="cls-2" d="M516.04,5133.51v114.29h-30.48v-114.29h30.48Z"/>
          <path class="cls-2" d="M616.14,5132.64l46.93,115.16h-30.31l-12.82-34.12h-40.18l-5.37,13.85c-2.6,6.93-4.33,12.82-5.19,20.26h-18.53l47.1-115.16h18.36ZM599.17,5161.56l-15.24,40.87h31.69l-16.1-40.87h-.35Z"/>
          <path class="cls-2" d="M799.2,5133.51v115.16h-18.53l-69.62-76.03h-.52l1.73,49.18c.35,10.39.52,16.97,2.25,25.98h-17.67v-115.16h18.7l69.44,76.37h.52l-1.73-49.53c-.35-9.53-1.04-20.09-2.25-25.98h17.66Z"/>
          <path class="cls-2" d="M945.21,5208.15v28.75c-10.74,8.31-24.59,12.64-40.52,12.64-39.48,0-63.56-24.07-63.56-58.88s24.07-58.88,63.38-58.88c15.76,0,29.61,4.16,40.35,12.64v28.75c-9.52-20.44-23.2-29.79-38.1-29.79-22.69,0-34.98,21.82-34.98,45.37s12.82,48.84,36.54,48.84c14.37,0,27.02-9,36.89-29.44Z"/>
          <path class="cls-2" d="M1041.85,5132.64l46.93,115.16h-30.31l-12.82-34.12h-40.18l-5.37,13.85c-2.6,6.93-4.33,12.82-5.2,20.26h-18.53l47.1-115.16h18.36ZM1024.88,5161.56l-15.24,40.87h31.69l-16.11-40.87h-.35Z"/>
          <path class="cls-2" d="M1234.79,5132.64l46.93,115.16h-30.31l-12.82-34.12h-40.18l-5.37,13.85c-2.6,6.93-4.33,12.82-5.19,20.26h-18.53l47.1-115.16h18.36ZM1217.82,5161.56l-15.24,40.87h31.69l-16.1-40.87h-.35Z"/>
          <path class="cls-2" d="M1316.37,5133.51h30.48v102.86h15.93c10.91,0,20.61-.69,25.98-2.08v13.51h-72.39v-114.29Z"/>
          <path class="cls-2" d="M1473.45,5133.51c37.58,0,61.83,23.55,61.83,57.15s-24.24,57.15-61.83,57.15h-45.72v-114.29h45.72ZM1458.21,5236.37h5.89c30.48,0,40.18-21.64,40.18-46.06s-9.35-45.55-40.18-45.55h-5.89v91.61Z"/>
          <path class="cls-2" d="M1625.35,5132.64l46.93,115.16h-30.31l-12.82-34.12h-40.18l-5.37,13.85c-2.6,6.93-4.33,12.82-5.2,20.26h-18.53l47.1-115.16h18.36ZM1608.37,5161.56l-15.24,40.87h31.69l-16.11-40.87h-.35Z"/>
          <path class="cls-2" d="M1765.81,5220.44h.87l42.08-87.8h19.05v115.16h-30.83l2.6-63.73h-.52l-31.35,64.6h-17.32l-30.48-64.6h-.52l1.73,37.75c.52,9.87.69,18.53,2.6,25.98h-17.67v-115.16h19.05l40.7,87.8Z"/>
          <path class="cls-2" d="M1927.92,5132.64l46.93,115.16h-30.31l-12.82-34.12h-40.18l-5.37,13.85c-2.6,6.93-4.33,12.82-5.2,20.26h-18.53l47.1-115.16h18.36ZM1910.94,5161.56l-15.24,40.87h31.69l-16.11-40.87h-.35Z"/>
        </g>
        <g>
          <path class="cls-2" d="M816.29,5401.51c6.03,1.55,10.57,3.98,13.62,7.3,3.05,3.32,4.58,7.73,4.58,13.21,0,6.72-2.61,12.05-7.82,15.99-5.22,3.94-12.61,5.91-22.19,5.91h-46.47v-81.12h47.52c8.27,0,14.72,1.81,19.36,5.44,4.64,3.64,6.95,8.77,6.95,15.42,0,4.17-1.37,7.74-4.11,10.72-2.74,2.98-6.55,5.35-11.42,7.12ZM775.03,5376.83v19.58h27.58c3.78,0,6.7-.94,8.75-2.84,2.04-1.9,3.07-4.31,3.07-7.25,0-3.09-.93-5.44-2.78-7.07-1.85-1.62-4.48-2.43-7.88-2.43h-28.74ZM804.81,5429.91c3.94,0,6.97-.93,9.1-2.78,2.12-1.85,3.19-4.52,3.19-8,0-2.93-1.1-5.31-3.3-7.12-2.2-1.81-5.35-2.72-9.44-2.72h-29.32v20.63h29.78Z"/>
          <path class="cls-2" d="M862.53,5403.95c0-6.49,1.08-12.34,3.25-17.56,2.16-5.22,5.27-9.66,9.33-13.33,4.06-3.67,8.98-6.49,14.78-8.46,5.79-1.97,12.32-2.95,19.59-2.95s13.79.98,19.59,2.95c5.79,1.97,10.72,4.79,14.78,8.46,4.06,3.67,7.16,8.11,9.33,13.33,2.16,5.21,3.25,11.06,3.25,17.56s-1.08,11.94-3.25,17.04c-2.17,5.1-5.27,9.43-9.33,12.98-4.06,3.55-8.98,6.3-14.78,8.23-5.8,1.93-12.33,2.89-19.59,2.89s-13.79-.96-19.59-2.89c-5.79-1.93-10.72-4.68-14.78-8.23-4.06-3.55-7.17-7.88-9.33-12.98-2.16-5.1-3.25-10.78-3.25-17.04ZM909.46,5430.95c9.66,0,17.05-2.33,22.19-7.01,5.14-4.67,7.71-11.33,7.71-19.99s-2.57-15.9-7.71-20.8c-5.14-4.9-12.54-7.36-22.19-7.36s-17.17,2.46-22.31,7.36c-5.14,4.9-7.71,11.84-7.71,20.8s2.57,15.32,7.71,19.99c5.14,4.68,12.57,7.01,22.31,7.01Z"/>
          <path class="cls-2" d="M989.2,5412.17v-49.37h17.04v47.75c0,7.03,1.87,12.19,5.62,15.47,3.75,3.28,9.29,4.92,16.63,4.92s12.98-1.64,16.69-4.92c3.71-3.28,5.56-8.44,5.56-15.47v-47.75h17.04v49.37c0,10.97-3.46,19.2-10.37,24.69-6.92,5.49-16.56,8.23-28.92,8.23s-22-2.74-28.92-8.23c-6.92-5.48-10.37-13.72-10.37-24.69Z"/>
          <path class="cls-2" d="M1177.17,5376.95h-30.6v66.98h-17.04v-66.98h-30.6v-14.14h78.23v14.14Z"/>
          <path class="cls-2" d="M1210.32,5362.81h17.04v81.12h-17.04v-81.12Z"/>
          <path class="cls-2" d="M1337.91,5448.8c2.01,0,4.04-.36,6.08-1.1,2.05-.74,4.19-1.99,6.43-3.77l5.33,17.15c-2.24,1-4.63,1.83-7.18,2.49-2.55.66-5.14.99-7.77.99-2.78,0-5.47-.39-8.05-1.16-2.59-.77-4.87-1.97-6.84-3.59-1.97-1.62-3.52-3.71-4.63-6.25-1.12-2.55-1.61-5.64-1.45-9.27-1.78.31-3.55.52-5.33.64s-3.63.17-5.56.17c-7.26,0-13.79-.96-19.59-2.89-5.79-1.93-10.72-4.68-14.78-8.23-4.06-3.55-7.17-7.88-9.33-12.98-2.16-5.1-3.25-10.78-3.25-17.04s1.08-12.34,3.25-17.56c2.16-5.22,5.27-9.66,9.33-13.33,4.06-3.67,8.98-6.49,14.78-8.46,5.79-1.97,12.32-2.95,19.59-2.95s13.79.98,19.59,2.95c5.79,1.97,10.72,4.79,14.78,8.46,4.06,3.67,7.16,8.11,9.33,13.33,2.16,5.21,3.25,11.06,3.25,17.56,0,9.81-2.55,18.06-7.65,24.74-5.1,6.68-12.25,11.38-21.44,14.08,1.31,2.08,2.95,3.61,4.92,4.57,1.97.97,4.04,1.45,6.2,1.45ZM1278.93,5403.95c0,8.66,2.57,15.32,7.71,19.99,5.14,4.68,12.57,7.01,22.31,7.01s17.05-2.33,22.19-7.01c5.14-4.67,7.71-11.33,7.71-19.99s-2.57-15.9-7.71-20.8c-5.14-4.9-12.54-7.36-22.19-7.36s-17.17,2.46-22.31,7.36c-5.14,4.9-7.71,11.84-7.71,20.8Z"/>
          <path class="cls-2" d="M1386.7,5412.17v-49.37h17.04v47.75c0,7.03,1.87,12.19,5.62,15.47,3.75,3.28,9.29,4.92,16.63,4.92s12.98-1.64,16.69-4.92c3.71-3.28,5.56-8.44,5.56-15.47v-47.75h17.04v49.37c0,10.97-3.46,19.2-10.37,24.69-6.92,5.49-16.56,8.23-28.92,8.23s-22-2.74-28.92-8.23c-6.92-5.48-10.37-13.72-10.37-24.69Z"/>
          <path class="cls-2" d="M1502.13,5443.93v-81.12h66.06v14.14h-49.02v19.47h44.85v14.14h-44.85v19.24h50.06v14.14h-67.1Z"/>
        </g>
      </g>
      <g>
        <path class="cls-2" d="M1975.22,5135.56c3.29,0,5.66,1.63,5.66,4.25,0,2.47-2.16,4.34-4.87,4.41h-.22l6.14,7.17h-3.43l-6.24-7.68v7.68h-2.95v-15.83h5.9ZM1973.9,5136.71h-1.63v6.72h1.51c2.83,0,4.05-1.63,4.05-3.5s-1.06-3.21-3.93-3.21Z"/>
        <path class="cls-2" d="M1974.85,5156.2c-6.73,0-12.21-5.48-12.21-12.21s5.48-12.21,12.21-12.21,12.21,5.48,12.21,12.21-5.48,12.21-12.21,12.21ZM1974.85,5133.26c-5.91,0-10.72,4.81-10.72,10.72s4.81,10.72,10.72,10.72,10.72-4.81,10.72-10.72-4.81-10.72-10.72-10.72Z"/>
      </g>
    </g>
    <text/>
  </g>
  <rect y="1171.48" width="2324.07" height="1380.6"/>
  <g>
    <g>
      <path class="cls-2" d="M1269.3,1763.39c10.12-4.34,18.98-10.3,26.57-17.9,7.59-7.59,13.62-16.51,18.08-26.75,4.46-10.24,6.69-21.15,6.69-32.72,0-10.6-1.87-20.61-5.6-30.01-3.74-9.4-8.86-17.83-15.37-25.31-6.5-7.47-14.22-13.61-23.14-18.44-8.92-4.82-18.44-7.95-28.56-9.4,2.17-3.85,3.92-8.01,5.24-12.47,1.32-4.46,1.99-9.09,1.99-13.92,0-6.99-1.33-13.61-3.97-19.88-2.66-6.27-6.21-11.75-10.67-16.45-4.46-4.7-9.76-8.5-15.91-11.39-6.14-2.89-12.72-4.46-19.7-4.7h-82.66c-6.99.24-13.56,1.81-19.71,4.7-6.14,2.89-11.45,6.69-15.91,11.39-4.46,4.7-8.01,10.19-10.66,16.45-2.65,6.27-3.98,12.9-3.98,19.88,0,4.82.67,9.46,1.99,13.92,1.32,4.46,3.07,8.62,5.24,12.47-10.12,1.45-19.64,4.58-28.56,9.4-8.92,4.82-16.64,10.97-23.14,18.44-6.51,7.47-11.63,15.91-15.37,25.31-3.74,9.4-5.6,19.41-5.6,30.01,0,11.57,2.23,22.48,6.69,32.72,4.46,10.25,10.48,19.16,18.08,26.75,7.59,7.59,16.45,13.56,26.57,17.9,10.12,4.34,20.97,6.51,32.54,6.51h146.3c11.57,0,22.42-2.17,32.54-6.51ZM1261.17,1627.99c7.59,3.25,14.28,7.77,20.06,13.56,5.79,5.78,10.3,12.47,13.56,20.06,3.25,7.59,4.88,15.73,4.88,24.4s-1.63,16.81-4.88,24.4c-3.26,7.59-7.77,14.28-13.56,20.07-5.78,5.78-12.47,10.3-20.06,13.56-7.6,3.25-15.73,4.88-24.41,4.88h-62.42v-70.84c.7-5.75,2.15-11.24,4.39-16.48,3.25-7.59,7.77-14.28,13.55-20.06,5.79-5.79,12.48-10.31,20.07-13.56,7.59-3.25,15.72-4.88,24.4-4.88s16.81,1.63,24.41,4.88ZM1225.01,1554.23c6.14,6.15,9.22,13.56,9.22,22.24,0,6.27-1.75,11.99-5.24,17.17-3.49,5.19-8.13,8.98-13.92,11.39-15.92,4.28-29.49,12.68-40.73,25.15v-85.17h28.43c8.68,0,16.09,3.07,22.24,9.22ZM1102.21,1554.23c6.15-6.15,13.56-9.22,22.24-9.22h28.43v85.17c-11.24-12.48-24.81-20.88-40.73-25.15-5.78-2.41-10.42-6.2-13.92-11.39-3.49-5.18-5.24-10.9-5.24-17.17,0-8.68,3.07-16.09,9.21-22.24ZM1066.06,1744.04c-7.59-3.25-14.28-7.77-20.06-13.56-5.79-5.79-10.31-12.47-13.56-20.07-3.25-7.59-4.88-15.73-4.88-24.4s1.63-16.81,4.88-24.4c3.25-7.59,7.77-14.28,13.56-20.06,5.78-5.79,12.47-10.31,20.06-13.56,7.59-3.25,15.73-4.88,24.4-4.88s16.81,1.63,24.41,4.88c7.59,3.25,14.28,7.77,20.07,13.56,5.78,5.78,10.3,12.47,13.56,20.06,2.24,5.23,3.7,10.73,4.39,16.48v70.83h-62.42c-8.67,0-16.81-1.63-24.4-4.88Z"/>
      <g>
        <path class="cls-2" d="M404.33,1889.1c21.99,0,34.12,14.54,34.12,28.75,0,10.74-7.1,22-23.21,24.94v.35c18.53,2.77,27.53,14.89,27.53,28.92,0,15.07-11.08,31.35-40,31.35h-50.39v-114.29h51.95ZM382.85,1938.45h10.39c10.05,0,16.28-7.97,16.28-19.22s-6.58-18.88-16.97-18.88h-9.7v38.1ZM382.85,1991.96h11.26c11.43,0,17.49-8.66,17.49-20.95s-6.24-21.65-18.18-21.65h-10.56v42.6Z"/>
        <path class="cls-2" d="M516.04,1889.1v114.29h-30.48v-114.29h30.48Z"/>
        <path class="cls-2" d="M616.14,1888.23l46.93,115.16h-30.31l-12.82-34.12h-40.18l-5.37,13.85c-2.6,6.93-4.33,12.82-5.19,20.26h-18.53l47.1-115.16h18.36ZM599.17,1917.15l-15.24,40.87h31.69l-16.1-40.87h-.35Z"/>
        <path class="cls-2" d="M799.2,1889.1v115.16h-18.53l-69.62-76.03h-.52l1.73,49.18c.35,10.39.52,16.97,2.25,25.98h-17.67v-115.16h18.7l69.44,76.37h.52l-1.73-49.53c-.35-9.53-1.04-20.09-2.25-25.98h17.66Z"/>
        <path class="cls-2" d="M945.21,1963.73v28.75c-10.74,8.31-24.59,12.64-40.52,12.64-39.48,0-63.56-24.07-63.56-58.88s24.07-58.88,63.38-58.88c15.76,0,29.61,4.16,40.35,12.64v28.75c-9.52-20.44-23.2-29.79-38.1-29.79-22.69,0-34.98,21.82-34.98,45.37s12.82,48.84,36.54,48.84c14.37,0,27.02-9,36.89-29.44Z"/>
        <path class="cls-2" d="M1041.85,1888.23l46.93,115.16h-30.31l-12.82-34.12h-40.18l-5.37,13.85c-2.6,6.93-4.33,12.82-5.2,20.26h-18.53l47.1-115.16h18.36ZM1024.88,1917.15l-15.24,40.87h31.69l-16.11-40.87h-.35Z"/>
        <path class="cls-2" d="M1234.79,1888.23l46.93,115.16h-30.31l-12.82-34.12h-40.18l-5.37,13.85c-2.6,6.93-4.33,12.82-5.19,20.26h-18.53l47.1-115.16h18.36ZM1217.82,1917.15l-15.24,40.87h31.69l-16.1-40.87h-.35Z"/>
        <path class="cls-2" d="M1316.37,1889.1h30.48v102.86h15.93c10.91,0,20.61-.69,25.98-2.08v13.51h-72.39v-114.29Z"/>
        <path class="cls-2" d="M1473.45,1889.1c37.58,0,61.83,23.55,61.83,57.15s-24.24,57.15-61.83,57.15h-45.72v-114.29h45.72ZM1458.21,1991.96h5.89c30.48,0,40.18-21.64,40.18-46.06s-9.35-45.55-40.18-45.55h-5.89v91.61Z"/>
        <path class="cls-2" d="M1625.35,1888.23l46.93,115.16h-30.31l-12.82-34.12h-40.18l-5.37,13.85c-2.6,6.93-4.33,12.82-5.2,20.26h-18.53l47.1-115.16h18.36ZM1608.37,1917.15l-15.24,40.87h31.69l-16.11-40.87h-.35Z"/>
        <path class="cls-2" d="M1765.81,1976.03h.87l42.08-87.8h19.05v115.16h-30.83l2.6-63.73h-.52l-31.35,64.6h-17.32l-30.48-64.6h-.52l1.73,37.75c.52,9.87.69,18.53,2.6,25.98h-17.67v-115.16h19.05l40.7,87.8Z"/>
        <path class="cls-2" d="M1927.92,1888.23l46.93,115.16h-30.31l-12.82-34.12h-40.18l-5.37,13.85c-2.6,6.93-4.33,12.82-5.2,20.26h-18.53l47.1-115.16h18.36ZM1910.94,1917.15l-15.24,40.87h31.69l-16.11-40.87h-.35Z"/>
      </g>
      <g>
        <path class="cls-2" d="M816.29,2157.1c6.03,1.55,10.57,3.98,13.62,7.3,3.05,3.32,4.58,7.73,4.58,13.21,0,6.72-2.61,12.05-7.82,15.99-5.22,3.94-12.61,5.91-22.19,5.91h-46.47v-81.12h47.52c8.27,0,14.72,1.81,19.36,5.44,4.64,3.64,6.95,8.77,6.95,15.42,0,4.17-1.37,7.74-4.11,10.72-2.74,2.98-6.55,5.35-11.42,7.12ZM775.03,2132.42v19.58h27.58c3.78,0,6.7-.94,8.75-2.84,2.04-1.9,3.07-4.31,3.07-7.25,0-3.09-.93-5.44-2.78-7.07-1.85-1.62-4.48-2.43-7.88-2.43h-28.74ZM804.81,2185.49c3.94,0,6.97-.93,9.1-2.78,2.12-1.85,3.19-4.52,3.19-8,0-2.93-1.1-5.31-3.3-7.12-2.2-1.81-5.35-2.72-9.44-2.72h-29.32v20.63h29.78Z"/>
        <path class="cls-2" d="M862.53,2159.53c0-6.49,1.08-12.34,3.25-17.56,2.16-5.22,5.27-9.66,9.33-13.33,4.06-3.67,8.98-6.49,14.78-8.46,5.79-1.97,12.32-2.95,19.59-2.95s13.79.98,19.59,2.95c5.79,1.97,10.72,4.79,14.78,8.46,4.06,3.67,7.16,8.11,9.33,13.33,2.16,5.21,3.25,11.06,3.25,17.56s-1.08,11.94-3.25,17.04c-2.17,5.1-5.27,9.43-9.33,12.98-4.06,3.55-8.98,6.3-14.78,8.23-5.8,1.93-12.33,2.89-19.59,2.89s-13.79-.96-19.59-2.89c-5.79-1.93-10.72-4.68-14.78-8.23-4.06-3.55-7.17-7.88-9.33-12.98-2.16-5.1-3.25-10.78-3.25-17.04ZM909.46,2186.53c9.66,0,17.05-2.33,22.19-7.01,5.14-4.67,7.71-11.33,7.71-19.99s-2.57-15.9-7.71-20.8c-5.14-4.9-12.54-7.36-22.19-7.36s-17.17,2.46-22.31,7.36c-5.14,4.9-7.71,11.84-7.71,20.8s2.57,15.32,7.71,19.99c5.14,4.68,12.57,7.01,22.31,7.01Z"/>
        <path class="cls-2" d="M989.2,2167.76v-49.37h17.04v47.75c0,7.03,1.87,12.19,5.62,15.47,3.75,3.28,9.29,4.92,16.63,4.92s12.98-1.64,16.69-4.92c3.71-3.28,5.56-8.44,5.56-15.47v-47.75h17.04v49.37c0,10.97-3.46,19.2-10.37,24.69-6.92,5.49-16.56,8.23-28.92,8.23s-22-2.74-28.92-8.23c-6.92-5.48-10.37-13.72-10.37-24.69Z"/>
        <path class="cls-2" d="M1177.17,2132.53h-30.6v66.98h-17.04v-66.98h-30.6v-14.14h78.23v14.14Z"/>
        <path class="cls-2" d="M1210.32,2118.39h17.04v81.12h-17.04v-81.12Z"/>
        <path class="cls-2" d="M1337.91,2204.38c2.01,0,4.04-.36,6.08-1.1,2.05-.74,4.19-1.99,6.43-3.77l5.33,17.15c-2.24,1-4.63,1.83-7.18,2.49-2.55.66-5.14.99-7.77.99-2.78,0-5.47-.39-8.05-1.16-2.59-.77-4.87-1.97-6.84-3.59-1.97-1.62-3.52-3.71-4.63-6.25-1.12-2.55-1.61-5.64-1.45-9.27-1.78.31-3.55.52-5.33.64s-3.63.17-5.56.17c-7.26,0-13.79-.96-19.59-2.89-5.79-1.93-10.72-4.68-14.78-8.23-4.06-3.55-7.17-7.88-9.33-12.98-2.16-5.1-3.25-10.78-3.25-17.04s1.08-12.34,3.25-17.56c2.16-5.22,5.27-9.66,9.33-13.33,4.06-3.67,8.98-6.49,14.78-8.46,5.79-1.97,12.32-2.95,19.59-2.95s13.79.98,19.59,2.95c5.79,1.97,10.72,4.79,14.78,8.46,4.06,3.67,7.16,8.11,9.33,13.33,2.16,5.21,3.25,11.06,3.25,17.56,0,9.81-2.55,18.06-7.65,24.74-5.1,6.68-12.25,11.38-21.44,14.08,1.31,2.08,2.95,3.61,4.92,4.57,1.97.97,4.04,1.45,6.2,1.45ZM1278.93,2159.53c0,8.66,2.57,15.32,7.71,19.99,5.14,4.68,12.57,7.01,22.31,7.01s17.05-2.33,22.19-7.01c5.14-4.67,7.71-11.33,7.71-19.99s-2.57-15.9-7.71-20.8c-5.14-4.9-12.54-7.36-22.19-7.36s-17.17,2.46-22.31,7.36c-5.14,4.9-7.71,11.84-7.71,20.8Z"/>
        <path class="cls-2" d="M1386.7,2167.76v-49.37h17.04v47.75c0,7.03,1.87,12.19,5.62,15.47,3.75,3.28,9.29,4.92,16.63,4.92s12.98-1.64,16.69-4.92c3.71-3.28,5.56-8.44,5.56-15.47v-47.75h17.04v49.37c0,10.97-3.46,19.2-10.37,24.69-6.92,5.49-16.56,8.23-28.92,8.23s-22-2.74-28.92-8.23c-6.92-5.48-10.37-13.72-10.37-24.69Z"/>
        <path class="cls-2" d="M1502.13,2199.52v-81.12h66.06v14.14h-49.02v19.47h44.85v14.14h-44.85v19.24h50.06v14.14h-67.1Z"/>
      </g>
    </g>
    <g>
      <path class="cls-2" d="M1975.22,1891.15c3.29,0,5.66,1.63,5.66,4.25,0,2.47-2.16,4.34-4.87,4.41h-.22l6.14,7.17h-3.43l-6.24-7.68v7.68h-2.95v-15.83h5.9ZM1973.9,1892.3h-1.63v6.72h1.51c2.83,0,4.05-1.63,4.05-3.5s-1.06-3.21-3.93-3.21Z"/>
      <path class="cls-2" d="M1974.85,1911.79c-6.73,0-12.21-5.48-12.21-12.21s5.48-12.21,12.21-12.21,12.21,5.48,12.21,12.21-5.48,12.21-12.21,12.21ZM1974.85,1888.85c-5.91,0-10.72,4.81-10.72,10.72s4.81,10.72,10.72,10.72,10.72-4.81,10.72-10.72-4.81-10.72-10.72-10.72Z"/>
    </g>
  </g>
  <g>
    <g>
      <path d="M1269.3,239.34c10.12-4.34,18.98-10.3,26.57-17.9,7.59-7.59,13.62-16.51,18.08-26.75,4.46-10.24,6.69-21.15,6.69-32.72,0-10.6-1.87-20.61-5.6-30.01-3.74-9.4-8.86-17.83-15.37-25.31-6.5-7.47-14.22-13.61-23.14-18.44-8.92-4.82-18.44-7.95-28.56-9.4,2.17-3.85,3.92-8.01,5.24-12.47,1.32-4.46,1.99-9.09,1.99-13.92,0-6.99-1.33-13.61-3.97-19.88-2.66-6.27-6.21-11.75-10.67-16.45-4.46-4.7-9.76-8.5-15.91-11.39-6.14-2.89-12.72-4.46-19.7-4.7h-82.66c-6.99.24-13.56,1.81-19.71,4.7-6.14,2.89-11.45,6.69-15.91,11.39-4.46,4.7-8.01,10.19-10.66,16.45-2.65,6.27-3.98,12.9-3.98,19.88,0,4.82.67,9.46,1.99,13.92,1.32,4.46,3.07,8.62,5.24,12.47-10.12,1.45-19.64,4.58-28.56,9.4-8.92,4.82-16.64,10.97-23.14,18.44-6.51,7.47-11.63,15.91-15.37,25.31-3.74,9.4-5.6,19.41-5.6,30.01,0,11.57,2.23,22.48,6.69,32.72,4.46,10.25,10.48,19.16,18.08,26.75,7.59,7.59,16.45,13.56,26.57,17.9,10.12,4.34,20.97,6.51,32.54,6.51h146.3c11.57,0,22.42-2.17,32.54-6.51ZM1261.17,103.94c7.59,3.25,14.28,7.77,20.06,13.56,5.79,5.78,10.3,12.47,13.56,20.06,3.25,7.59,4.88,15.73,4.88,24.4s-1.63,16.81-4.88,24.4c-3.26,7.59-7.77,14.28-13.56,20.07-5.78,5.78-12.47,10.3-20.06,13.56-7.6,3.25-15.73,4.88-24.41,4.88h-62.42v-70.84c.7-5.75,2.15-11.24,4.39-16.48,3.25-7.59,7.77-14.28,13.55-20.06,5.79-5.79,12.48-10.31,20.07-13.56,7.59-3.25,15.72-4.88,24.4-4.88s16.81,1.63,24.41,4.88ZM1225.01,30.19c6.14,6.15,9.22,13.56,9.22,22.24,0,6.27-1.75,11.99-5.24,17.17-3.49,5.19-8.13,8.98-13.92,11.39-15.92,4.28-29.49,12.68-40.73,25.15V20.97h28.43c8.68,0,16.09,3.07,22.24,9.22ZM1102.21,30.19c6.15-6.15,13.56-9.22,22.24-9.22h28.43v85.17c-11.24-12.48-24.81-20.88-40.73-25.15-5.78-2.41-10.42-6.2-13.92-11.39-3.49-5.18-5.24-10.9-5.24-17.17,0-8.68,3.07-16.09,9.21-22.24ZM1066.06,220c-7.59-3.25-14.28-7.77-20.06-13.56-5.79-5.79-10.31-12.47-13.56-20.07-3.25-7.59-4.88-15.73-4.88-24.4s1.63-16.81,4.88-24.4c3.25-7.59,7.77-14.28,13.56-20.06,5.78-5.79,12.47-10.31,20.06-13.56,7.59-3.25,15.73-4.88,24.4-4.88s16.81,1.63,24.41,4.88c7.59,3.25,14.28,7.77,20.07,13.56,5.78,5.78,10.3,12.47,13.56,20.06,2.24,5.23,3.7,10.73,4.39,16.48v70.83h-62.42c-8.67,0-16.81-1.63-24.4-4.88Z"/>
      <g>
        <path d="M404.33,365.05c21.99,0,34.12,14.54,34.12,28.75,0,10.74-7.1,22-23.21,24.94v.35c18.53,2.77,27.53,14.89,27.53,28.92,0,15.07-11.08,31.35-40,31.35h-50.39v-114.29h51.95ZM382.85,414.41h10.39c10.05,0,16.28-7.97,16.28-19.22s-6.58-18.88-16.97-18.88h-9.7v38.1ZM382.85,467.92h11.26c11.43,0,17.49-8.66,17.49-20.95s-6.24-21.65-18.18-21.65h-10.56v42.6Z"/>
        <path d="M516.04,365.05v114.29h-30.48v-114.29h30.48Z"/>
        <path d="M616.14,364.19l46.93,115.16h-30.31l-12.82-34.12h-40.18l-5.37,13.85c-2.6,6.93-4.33,12.82-5.19,20.26h-18.53l47.1-115.16h18.36ZM599.17,393.1l-15.24,40.87h31.69l-16.1-40.87h-.35Z"/>
        <path d="M799.2,365.05v115.16h-18.53l-69.62-76.03h-.52l1.73,49.18c.35,10.39.52,16.97,2.25,25.98h-17.67v-115.16h18.7l69.44,76.37h.52l-1.73-49.53c-.35-9.53-1.04-20.09-2.25-25.98h17.66Z"/>
        <path d="M945.21,439.69v28.75c-10.74,8.31-24.59,12.64-40.52,12.64-39.48,0-63.56-24.07-63.56-58.88s24.07-58.88,63.38-58.88c15.76,0,29.61,4.16,40.35,12.64v28.75c-9.52-20.44-23.2-29.79-38.1-29.79-22.69,0-34.98,21.82-34.98,45.37s12.82,48.84,36.54,48.84c14.37,0,27.02-9,36.89-29.44Z"/>
        <path d="M1041.85,364.19l46.93,115.16h-30.31l-12.82-34.12h-40.18l-5.37,13.85c-2.6,6.93-4.33,12.82-5.2,20.26h-18.53l47.1-115.16h18.36ZM1024.88,393.1l-15.24,40.87h31.69l-16.11-40.87h-.35Z"/>
        <path d="M1234.79,364.19l46.93,115.16h-30.31l-12.82-34.12h-40.18l-5.37,13.85c-2.6,6.93-4.33,12.82-5.19,20.26h-18.53l47.1-115.16h18.36ZM1217.82,393.1l-15.24,40.87h31.69l-16.1-40.87h-.35Z"/>
        <path d="M1316.37,365.05h30.48v102.86h15.93c10.91,0,20.61-.69,25.98-2.08v13.51h-72.39v-114.29Z"/>
        <path d="M1473.45,365.05c37.58,0,61.83,23.55,61.83,57.15s-24.24,57.15-61.83,57.15h-45.72v-114.29h45.72ZM1458.21,467.92h5.89c30.48,0,40.18-21.64,40.18-46.06s-9.35-45.55-40.18-45.55h-5.89v91.61Z"/>
        <path d="M1625.35,364.19l46.93,115.16h-30.31l-12.82-34.12h-40.18l-5.37,13.85c-2.6,6.93-4.33,12.82-5.2,20.26h-18.53l47.1-115.16h18.36ZM1608.37,393.1l-15.24,40.87h31.69l-16.11-40.87h-.35Z"/>
        <path d="M1765.81,451.99h.87l42.08-87.8h19.05v115.16h-30.83l2.6-63.73h-.52l-31.35,64.6h-17.32l-30.48-64.6h-.52l1.73,37.75c.52,9.87.69,18.53,2.6,25.98h-17.67v-115.16h19.05l40.7,87.8Z"/>
        <path d="M1927.92,364.19l46.93,115.16h-30.31l-12.82-34.12h-40.18l-5.37,13.85c-2.6,6.93-4.33,12.82-5.2,20.26h-18.53l47.1-115.16h18.36ZM1910.94,393.1l-15.24,40.87h31.69l-16.11-40.87h-.35Z"/>
      </g>
      <g>
        <path d="M816.29,633.05c6.03,1.55,10.57,3.98,13.62,7.3,3.05,3.32,4.58,7.73,4.58,13.21,0,6.72-2.61,12.05-7.82,15.99-5.22,3.94-12.61,5.91-22.19,5.91h-46.47v-81.12h47.52c8.27,0,14.72,1.81,19.36,5.44,4.64,3.64,6.95,8.77,6.95,15.42,0,4.17-1.37,7.74-4.11,10.72-2.74,2.98-6.55,5.35-11.42,7.12ZM775.03,608.37v19.58h27.58c3.78,0,6.7-.94,8.75-2.84,2.04-1.9,3.07-4.31,3.07-7.25,0-3.09-.93-5.44-2.78-7.07-1.85-1.62-4.48-2.43-7.88-2.43h-28.74ZM804.81,661.45c3.94,0,6.97-.93,9.1-2.78,2.12-1.85,3.19-4.52,3.19-8,0-2.93-1.1-5.31-3.3-7.12-2.2-1.81-5.35-2.72-9.44-2.72h-29.32v20.63h29.78Z"/>
        <path d="M862.53,635.49c0-6.49,1.08-12.34,3.25-17.56,2.16-5.22,5.27-9.66,9.33-13.33,4.06-3.67,8.98-6.49,14.78-8.46,5.79-1.97,12.32-2.95,19.59-2.95s13.79.98,19.59,2.95c5.79,1.97,10.72,4.79,14.78,8.46,4.06,3.67,7.16,8.11,9.33,13.33,2.16,5.21,3.25,11.06,3.25,17.56s-1.08,11.94-3.25,17.04c-2.17,5.1-5.27,9.43-9.33,12.98-4.06,3.55-8.98,6.3-14.78,8.23-5.8,1.93-12.33,2.89-19.59,2.89s-13.79-.96-19.59-2.89c-5.79-1.93-10.72-4.68-14.78-8.23-4.06-3.55-7.17-7.88-9.33-12.98-2.16-5.1-3.25-10.78-3.25-17.04ZM909.46,662.49c9.66,0,17.05-2.33,22.19-7.01,5.14-4.67,7.71-11.33,7.71-19.99s-2.57-15.9-7.71-20.8c-5.14-4.9-12.54-7.36-22.19-7.36s-17.17,2.46-22.31,7.36c-5.14,4.9-7.71,11.84-7.71,20.8s2.57,15.32,7.71,19.99c5.14,4.68,12.57,7.01,22.31,7.01Z"/>
        <path d="M989.2,643.72v-49.37h17.04v47.75c0,7.03,1.87,12.19,5.62,15.47,3.75,3.28,9.29,4.92,16.63,4.92s12.98-1.64,16.69-4.92c3.71-3.28,5.56-8.44,5.56-15.47v-47.75h17.04v49.37c0,10.97-3.46,19.2-10.37,24.69-6.92,5.49-16.56,8.23-28.92,8.23s-22-2.74-28.92-8.23c-6.92-5.48-10.37-13.72-10.37-24.69Z"/>
        <path d="M1177.17,608.49h-30.6v66.98h-17.04v-66.98h-30.6v-14.14h78.23v14.14Z"/>
        <path d="M1210.32,594.35h17.04v81.12h-17.04v-81.12Z"/>
        <path d="M1337.91,680.34c2.01,0,4.04-.36,6.08-1.1,2.05-.74,4.19-1.99,6.43-3.77l5.33,17.15c-2.24,1-4.63,1.83-7.18,2.49-2.55.66-5.14.99-7.77.99-2.78,0-5.47-.39-8.05-1.16-2.59-.77-4.87-1.97-6.84-3.59-1.97-1.62-3.52-3.71-4.63-6.25-1.12-2.55-1.61-5.64-1.45-9.27-1.78.31-3.55.52-5.33.64s-3.63.17-5.56.17c-7.26,0-13.79-.96-19.59-2.89-5.79-1.93-10.72-4.68-14.78-8.23-4.06-3.55-7.17-7.88-9.33-12.98-2.16-5.1-3.25-10.78-3.25-17.04s1.08-12.34,3.25-17.56c2.16-5.22,5.27-9.66,9.33-13.33,4.06-3.67,8.98-6.49,14.78-8.46,5.79-1.97,12.32-2.95,19.59-2.95s13.79.98,19.59,2.95c5.79,1.97,10.72,4.79,14.78,8.46,4.06,3.67,7.16,8.11,9.33,13.33,2.16,5.21,3.25,11.06,3.25,17.56,0,9.81-2.55,18.06-7.65,24.74-5.1,6.68-12.25,11.38-21.44,14.08,1.31,2.08,2.95,3.61,4.92,4.57,1.97.97,4.04,1.45,6.2,1.45ZM1278.93,635.49c0,8.66,2.57,15.32,7.71,19.99,5.14,4.68,12.57,7.01,22.31,7.01s17.05-2.33,22.19-7.01c5.14-4.67,7.71-11.33,7.71-19.99s-2.57-15.9-7.71-20.8c-5.14-4.9-12.54-7.36-22.19-7.36s-17.17,2.46-22.31,7.36c-5.14,4.9-7.71,11.84-7.71,20.8Z"/>
        <path d="M1386.7,643.72v-49.37h17.04v47.75c0,7.03,1.87,12.19,5.62,15.47,3.75,3.28,9.29,4.92,16.63,4.92s12.98-1.64,16.69-4.92c3.71-3.28,5.56-8.44,5.56-15.47v-47.75h17.04v49.37c0,10.97-3.46,19.2-10.37,24.69-6.92,5.49-16.56,8.23-28.92,8.23s-22-2.74-28.92-8.23c-6.92-5.48-10.37-13.72-10.37-24.69Z"/>
        <path d="M1502.13,675.47v-81.12h66.06v14.14h-49.02v19.47h44.85v14.14h-44.85v19.24h50.06v14.14h-67.1Z"/>
      </g>
    </g>
    <g>
      <path d="M1975.22,367.1c3.29,0,5.66,1.63,5.66,4.25,0,2.47-2.16,4.34-4.87,4.41h-.22l6.14,7.17h-3.43l-6.24-7.68v7.68h-2.95v-15.83h5.9ZM1973.9,368.25h-1.63v6.72h1.51c2.83,0,4.05-1.63,4.05-3.5s-1.06-3.21-3.93-3.21Z"/>
      <path d="M1974.85,387.74c-6.73,0-12.21-5.48-12.21-12.21s5.48-12.21,12.21-12.21,12.21,5.48,12.21,12.21-5.48,12.21-12.21,12.21ZM1974.85,364.81c-5.91,0-10.72,4.81-10.72,10.72s4.81,10.72,10.72,10.72,10.72-4.81,10.72-10.72-4.81-10.72-10.72-10.72Z"/>
    </g>
  </g>
</svg>